<svg xmlns="http://www.w3.org/2000/svg" width="486.77" height="179.15" viewBox="0 0 486.77 179.15">
  <defs>
    <style>
      .cls-1 {
        fill: #000;
      }
    </style>
  </defs>
  <g id="Layer_6" data-name="Layer 6">
    <g>
      <g>
        <g>
          <circle class="cls-1" cx="481.92" cy="128.52" r="4.44"/>
          <circle class="cls-1" cx="481.92" cy="124.29" r="4.44"/>
          <circle class="cls-1" cx="481.92" cy="120.05" r="4.44"/>
          <circle class="cls-1" cx="481.92" cy="115.82" r="4.44"/>
          <circle class="cls-1" cx="481.92" cy="111.58" r="4.44"/>
          <circle class="cls-1" cx="481.92" cy="107.35" r="4.44"/>
          <circle class="cls-1" cx="481.92" cy="103.11" r="4.44"/>
          <circle class="cls-1" cx="481.92" cy="98.87" r="4.44"/>
          <circle class="cls-1" cx="481.92" cy="94.64" r="4.44"/>
          <circle class="cls-1" cx="481.92" cy="90.4" r="4.44"/>
          <circle class="cls-1" cx="481.92" cy="86.17" r="4.44"/>
          <circle class="cls-1" cx="481.92" cy="81.93" r="4.44"/>
          <circle class="cls-1" cx="481.92" cy="77.7" r="4.44"/>
          <circle class="cls-1" cx="481.92" cy="73.46" r="4.44"/>
          <circle class="cls-1" cx="481.92" cy="69.22" r="4.44"/>
          <circle class="cls-1" cx="481.92" cy="64.99" r="4.44"/>
          <circle class="cls-1" cx="481.92" cy="60.75" r="4.44"/>
          <circle class="cls-1" cx="481.92" cy="56.5" r="4.44"/>
        </g>
        <g>
          <circle class="cls-1" cx="425.83" cy="106.77" r="4.44"/>
          <circle class="cls-1" cx="428.89" cy="103.7" r="4.44"/>
          <circle class="cls-1" cx="431.95" cy="100.64" r="4.44"/>
          <circle class="cls-1" cx="435.01" cy="97.58" r="4.44"/>
          <circle class="cls-1" cx="438.07" cy="94.52" r="4.44"/>
          <circle class="cls-1" cx="441.13" cy="91.46" r="4.44"/>
          <circle class="cls-1" cx="444.74" cy="87.85" r="4.44"/>
          <circle class="cls-1" cx="444.74" cy="83.32" r="4.44"/>
          <circle class="cls-1" cx="444.74" cy="79.06" r="4.44"/>
          <circle class="cls-1" cx="444.74" cy="74.8" r="4.44"/>
          <circle class="cls-1" cx="444.74" cy="70.54" r="4.44"/>
          <circle class="cls-1" cx="444.74" cy="66.28" r="4.44"/>
          <circle class="cls-1" cx="448.38" cy="91.49" r="4.44"/>
          <circle class="cls-1" cx="451.49" cy="94.59" r="4.44"/>
          <circle class="cls-1" cx="454.6" cy="97.7" r="4.44"/>
          <circle class="cls-1" cx="457.7" cy="100.8" r="4.44"/>
          <circle class="cls-1" cx="460.81" cy="103.91" r="4.44"/>
          <circle class="cls-1" cx="463.91" cy="107.02" r="4.44"/>
        </g>
      </g>
      <g>
        <rect class="cls-1" x="351.64" y="93.46" width="8.63" height="8.63" transform="translate(35.12 280.34) rotate(-45)"/>
        <rect class="cls-1" x="345.46" y="93.46" width="8.63" height="8.63" transform="translate(33.31 275.97) rotate(-45)"/>
        <rect class="cls-1" x="339.11" y="93.46" width="8.63" height="8.63" transform="translate(31.45 271.48) rotate(-45)"/>
        <g>
          <rect class="cls-1" x="347.58" y="70.84" width="8.63" height="8.63" transform="translate(49.92 270.84) rotate(-45)"/>
          <rect class="cls-1" x="353.69" y="64.73" width="8.63" height="8.63" transform="translate(56.03 273.37) rotate(-45)"/>
          <rect class="cls-1" x="353.68" y="76.94" width="8.63" height="8.63" transform="translate(47.4 276.94) rotate(-45)"/>
        </g>
        <g>
          <rect class="cls-1" x="378.2" y="70.83" width="8.63" height="8.63" transform="translate(706.13 -142.19) rotate(135)"/>
          <rect class="cls-1" x="372.09" y="76.94" width="8.63" height="8.63" transform="translate(700.03 -127.45) rotate(135)"/>
          <rect class="cls-1" x="372.1" y="64.73" width="8.63" height="8.63" transform="translate(691.41 -148.29) rotate(135)"/>
        </g>
        <rect class="cls-1" x="357.72" y="93.46" width="8.63" height="8.63" transform="translate(36.9 284.64) rotate(-45)"/>
        <rect class="cls-1" x="363.81" y="93.46" width="8.63" height="8.63" transform="translate(38.68 288.94) rotate(-45)"/>
        <rect class="cls-1" x="369.89" y="93.46" width="8.63" height="8.63" transform="translate(40.46 293.25) rotate(-45)"/>
        <rect class="cls-1" x="375.98" y="93.46" width="8.63" height="8.63" transform="translate(42.24 297.55) rotate(-45)"/>
        <rect class="cls-1" x="382.06" y="93.46" width="8.63" height="8.63" transform="translate(44.03 301.85) rotate(-45)"/>
        <rect class="cls-1" x="379.14" y="108.57" width="8.63" height="8.63" transform="translate(32.49 304.21) rotate(-45)"/>
        <rect class="cls-1" x="385.25" y="108.57" width="8.63" height="8.63" transform="translate(34.28 308.53) rotate(-45)"/>
        <rect class="cls-1" x="391.33" y="108.57" width="8.63" height="8.63" transform="translate(36.06 312.83) rotate(-45)"/>
        <rect class="cls-1" x="397.43" y="108.57" width="8.63" height="8.63" transform="translate(37.85 317.14) rotate(-45)"/>
        <rect class="cls-1" x="394.89" y="123.31" width="8.63" height="8.63" transform="translate(26.68 319.66) rotate(-45)"/>
        <rect class="cls-1" x="400.91" y="123.31" width="8.63" height="8.63" transform="translate(28.44 323.92) rotate(-45)"/>
        <rect class="cls-1" x="406.98" y="123.31" width="8.63" height="8.63" transform="translate(30.22 328.21) rotate(-45)"/>
        <rect class="cls-1" x="413.08" y="123.31" width="8.63" height="8.63" transform="translate(32 332.52) rotate(-45)"/>
        <polygon class="cls-1" points="392.55 103.8 398.57 97.78 392.46 91.68 386.45 97.69 386.36 97.78 383.44 100.7 383.44 100.7 380.44 103.7 377.34 106.8 374.33 109.81 374.33 109.81 374.28 109.86 374.28 109.86 368.17 115.97 374.28 122.07 377.43 118.92 377.43 118.92 383.53 112.81 386.45 109.9 392.46 103.89 392.46 103.89 392.51 103.84 392.55 103.8 392.55 103.8"/>
        <rect class="cls-1" x="382.79" y="116.54" width="34.18" height="8.63" transform="translate(31.66 318.16) rotate(-45)"/>
        <rect class="cls-1" x="399.24" y="130.49" width="34.15" height="8.63" transform="translate(26.62 333.86) rotate(-45)"/>
      </g>
      <g>
        <g>
          <polygon class="cls-1" points="234.32 178.93 239.57 169.83 229.07 169.83 234.32 178.93"/>
          <polygon class="cls-1" points="229.05 169.93 234.31 160.83 223.8 160.83 229.05 169.93"/>
          <polygon class="cls-1" points="223.81 160.94 229.07 151.84 218.56 151.84 223.81 160.94"/>
          <polygon class="cls-1" points="218.58 151.87 223.83 142.77 213.32 142.77 218.58 151.87"/>
          <polygon class="cls-1" points="225.89 160.94 231.15 151.84 220.64 151.84 225.89 160.94"/>
          <polygon class="cls-1" points="227.97 160.94 233.22 151.84 222.72 151.84 227.97 160.94"/>
          <polygon class="cls-1" points="230.05 160.94 235.3 151.84 224.79 151.84 230.05 160.94"/>
          <polygon class="cls-1" points="232.13 160.94 237.38 151.84 226.87 151.84 232.13 160.94"/>
          <polygon class="cls-1" points="234.2 160.94 239.46 151.84 228.95 151.84 234.2 160.94"/>
          <polygon class="cls-1" points="236.38 178.93 241.64 169.83 231.13 169.83 236.38 178.93"/>
          <polygon class="cls-1" points="238.45 178.93 243.7 169.83 233.19 169.83 238.45 178.93"/>
          <polygon class="cls-1" points="240.51 178.93 245.77 169.83 235.26 169.83 240.51 178.93"/>
          <polygon class="cls-1" points="242.58 178.93 247.83 169.83 237.32 169.83 242.58 178.93"/>
          <polygon class="cls-1" points="244.64 178.93 249.9 169.83 239.39 169.83 244.64 178.93"/>
          <polygon class="cls-1" points="246.71 178.93 251.96 169.83 241.45 169.83 246.71 178.93"/>
          <polygon class="cls-1" points="248.77 178.93 254.02 169.83 243.52 169.83 248.77 178.93"/>
          <polygon class="cls-1" points="250.83 178.93 256.09 169.83 245.58 169.83 250.83 178.93"/>
          <polygon class="cls-1" points="252.9 178.93 258.15 169.83 247.64 169.83 252.9 178.93"/>
          <polygon class="cls-1" points="254.96 178.93 260.22 169.83 249.71 169.83 254.96 178.93"/>
          <polygon class="cls-1" points="257.03 178.93 262.28 169.83 251.77 169.83 257.03 178.93"/>
          <polygon class="cls-1" points="259.09 178.93 264.34 169.83 253.84 169.83 259.09 178.93"/>
          <polygon class="cls-1" points="261.15 178.93 266.41 169.83 255.9 169.83 261.15 178.93"/>
          <polygon class="cls-1" points="263.22 178.93 268.47 169.83 257.96 169.83 263.22 178.93"/>
          <polygon class="cls-1" points="265.28 178.93 270.54 169.83 260.03 169.83 265.28 178.93"/>
          <polygon class="cls-1" points="267.35 178.93 272.6 169.83 262.09 169.83 267.35 178.93"/>
          <polygon class="cls-1" points="269.41 178.93 274.67 169.83 264.16 169.83 269.41 178.93"/>
          <polygon class="cls-1" points="271.48 178.93 276.73 169.83 266.22 169.83 271.48 178.93"/>
        </g>
        <g>
          <polygon class="cls-1" points="240.8 141.38 246.05 132.28 235.54 132.28 240.8 141.38"/>
          <polygon class="cls-1" points="242.52 141.38 247.77 132.28 237.27 132.28 242.52 141.38"/>
          <polygon class="cls-1" points="244.24 141.38 249.5 132.28 238.99 132.28 244.24 141.38"/>
          <polygon class="cls-1" points="245.97 141.38 251.22 132.28 240.71 132.28 245.97 141.38"/>
          <polygon class="cls-1" points="247.69 141.38 252.94 132.28 242.44 132.28 247.69 141.38"/>
          <polygon class="cls-1" points="249.41 141.38 254.67 132.28 244.16 132.28 249.41 141.38"/>
          <polygon class="cls-1" points="251.14 141.38 256.39 132.28 245.88 132.28 251.14 141.38"/>
          <polygon class="cls-1" points="252.86 141.38 258.11 132.28 247.61 132.28 252.86 141.38"/>
          <polygon class="cls-1" points="254.58 141.38 259.84 132.28 249.33 132.28 254.58 141.38"/>
          <polygon class="cls-1" points="256.31 141.38 261.56 132.28 251.05 132.28 256.31 141.38"/>
          <polygon class="cls-1" points="235.57 132.29 240.83 123.19 230.32 123.19 235.57 132.29"/>
          <polygon class="cls-1" points="239.16 132.29 244.41 123.19 233.9 123.19 239.16 132.29"/>
          <polygon class="cls-1" points="237.37 132.29 242.62 123.19 232.11 123.19 237.37 132.29"/>
          <polygon class="cls-1" points="230.28 123.2 235.54 114.1 225.03 114.1 230.28 123.2"/>
          <polygon class="cls-1" points="232.04 123.2 237.3 114.1 226.79 114.1 232.04 123.2"/>
          <polygon class="cls-1" points="233.81 123.2 239.06 114.1 228.55 114.1 233.81 123.2"/>
          <polygon class="cls-1" points="235.57 123.2 240.82 114.1 230.31 114.1 235.57 123.2"/>
          <polygon class="cls-1" points="237.33 123.2 242.58 114.1 232.08 114.1 237.33 123.2"/>
          <polygon class="cls-1" points="239.09 123.2 244.34 114.1 233.84 114.1 239.09 123.2"/>
          <polygon class="cls-1" points="240.85 123.2 246.11 114.1 235.6 114.1 240.85 123.2"/>
          <polygon class="cls-1" points="244.38 123.2 249.63 114.1 239.12 114.1 244.38 123.2"/>
          <polygon class="cls-1" points="242.62 123.2 247.87 114.1 237.36 114.1 242.62 123.2"/>
          <polygon class="cls-1" points="252.57 123.2 257.82 114.1 247.32 114.1 252.57 123.2"/>
          <polygon class="cls-1" points="254.35 123.2 259.6 114.1 249.09 114.1 254.35 123.2"/>
          <polygon class="cls-1" points="256.12 123.2 261.38 114.1 250.87 114.1 256.12 123.2"/>
          <polygon class="cls-1" points="257.9 123.2 263.15 114.1 252.65 114.1 257.9 123.2"/>
          <polygon class="cls-1" points="259.68 123.2 264.93 114.1 254.42 114.1 259.68 123.2"/>
          <polygon class="cls-1" points="261.45 123.2 266.71 114.1 256.2 114.1 261.45 123.2"/>
          <polygon class="cls-1" points="271.97 114.11 277.23 105.01 266.72 105.01 271.97 114.11"/>
          <polygon class="cls-1" points="261.55 132.29 266.81 123.19 256.3 123.19 261.55 132.29"/>
          <polygon class="cls-1" points="257.81 132.29 263.06 123.19 252.56 123.19 257.81 132.29"/>
          <polygon class="cls-1" points="259.68 132.29 264.94 123.19 254.43 123.19 259.68 132.29"/>
          <polygon class="cls-1" points="266.78 123.2 272.04 114.1 261.53 114.1 266.78 123.2"/>
          <polygon class="cls-1" points="265.01 123.2 270.26 114.1 259.75 114.1 265.01 123.2"/>
          <polygon class="cls-1" points="263.23 123.2 268.48 114.1 257.98 114.1 263.23 123.2"/>
          <polygon class="cls-1" points="251.06 150.49 256.31 141.38 245.8 141.38 251.06 150.49"/>
          <polygon class="cls-1" points="247.72 150.49 252.97 141.38 242.46 141.38 247.72 150.49"/>
          <polygon class="cls-1" points="249.39 150.49 254.64 141.38 244.13 141.38 249.39 150.49"/>
          <polygon class="cls-1" points="246.05 150.49 251.3 141.38 240.79 141.38 246.05 150.49"/>
          <polygon class="cls-1" points="251.32 159.59 256.57 150.49 246.07 150.49 251.32 159.59"/>
          <polygon class="cls-1" points="253.25 159.59 258.5 150.49 247.99 150.49 253.25 159.59"/>
          <polygon class="cls-1" points="255.18 159.59 260.43 150.49 249.92 150.49 255.18 159.59"/>
          <polygon class="cls-1" points="257.11 159.59 262.36 150.49 251.85 150.49 257.11 159.59"/>
          <polygon class="cls-1" points="259.03 159.59 264.29 150.49 253.78 150.49 259.03 159.59"/>
          <polygon class="cls-1" points="260.96 159.59 266.22 150.49 255.71 150.49 260.96 159.59"/>
          <polygon class="cls-1" points="262.89 159.59 268.15 150.49 257.64 150.49 262.89 159.59"/>
          <polygon class="cls-1" points="264.82 159.59 270.07 150.49 259.57 150.49 264.82 159.59"/>
          <polygon class="cls-1" points="266.75 159.59 272 150.49 261.5 150.49 266.75 159.59"/>
          <polygon class="cls-1" points="268.68 159.59 273.93 150.49 263.43 150.49 268.68 159.59"/>
          <polygon class="cls-1" points="270.61 159.59 275.86 150.49 265.35 150.49 270.61 159.59"/>
          <polygon class="cls-1" points="272.54 159.59 277.79 150.49 267.28 150.49 272.54 159.59"/>
          <polygon class="cls-1" points="274.46 159.59 279.72 150.49 269.21 150.49 274.46 159.59"/>
          <polygon class="cls-1" points="276.39 159.59 281.65 150.49 271.14 150.49 276.39 159.59"/>
          <polygon class="cls-1" points="278.32 159.59 283.58 150.49 273.07 150.49 278.32 159.59"/>
          <polygon class="cls-1" points="283.58 150.42 288.84 141.32 278.33 141.32 283.58 150.42"/>
        </g>
      </g>
      <g>
        <g>
          <polygon class="cls-1" points="203.23 92.72 196.18 92.72 196.18 95.73 193.15 95.73 193.15 111.32 196.29 111.32 196.29 108.31 203.33 108.31 203.23 92.72"/>
          <polygon class="cls-1" points="196.71 77.04 196.71 72.58 196.71 63.14 196.71 57 193.15 57 193.15 53.92 188 53.92 188 50.85 183.41 50.85 183.41 66.44 187.96 66.44 187.96 69.51 193.15 69.51 193.15 72.12 188 72.12 188 134.42 193.15 134.42 193.15 77.04 196.71 77.04"/>
          <rect class="cls-1" x="193.15" y="95.68" width="3.12" height="15.58"/>
        </g>
        <polygon class="cls-1" points="135.74 124.48 139.11 124.48 139.11 121.9 142.35 121.9 142.35 118.87 145.41 118.87 145.41 115.84 148.46 115.84 148.46 112.81 151.51 112.81 151.51 109.78 154.57 109.78 154.57 106.76 157.62 106.76 157.62 103.73 160.61 103.73 160.61 100.7 163.73 100.7 163.73 97.67 166.88 97.67 166.88 94.64 169.93 94.64 169.93 91.62 172.98 91.62 172.98 76.03 169.93 76.03 169.93 73.01 166.88 73.01 166.88 69.98 163.73 69.98 163.73 66.88 160.61 66.88 160.61 63.78 141.03 63.78 141.03 79.36 160.61 79.36 160.61 82.46 163.73 82.46 163.73 85.12 160.61 85.12 160.61 88.15 157.62 88.15 157.62 91.17 154.57 91.17 154.57 94.2 151.51 94.2 151.51 97.23 148.46 97.23 148.46 100.26 145.41 100.26 145.41 103.29 142.35 103.29 142.35 106.31 139.11 106.31 139.11 109.01 135.74 109.01 135.74 124.48"/>
      </g>
      <g>
        <g>
          <ellipse class="cls-1" cx="89.72" cy="19.79" rx="6.06" ry="3.3" transform="translate(12.28 69.24) rotate(-45)"/>
          <ellipse class="cls-1" cx="85.59" cy="19.79" rx="6.06" ry="3.3" transform="translate(11.07 66.32) rotate(-45)"/>
          <ellipse class="cls-1" cx="81.46" cy="19.79" rx="6.06" ry="3.3" transform="translate(9.86 63.4) rotate(-45)"/>
          <ellipse class="cls-1" cx="73.2" cy="19.79" rx="6.06" ry="3.3" transform="translate(7.44 57.56) rotate(-45)"/>
          <ellipse class="cls-1" cx="77.33" cy="19.79" rx="6.06" ry="3.3" transform="translate(8.65 60.48) rotate(-45)"/>
          <g>
            <ellipse class="cls-1" cx="92.14" cy="22.05" rx="5.49" ry="2.99" transform="translate(11.39 71.61) rotate(-45)"/>
            <ellipse class="cls-1" cx="95.01" cy="19.18" rx="5.49" ry="2.99" transform="translate(14.27 72.8) rotate(-45)"/>
            <ellipse class="cls-1" cx="89.26" cy="24.93" rx="5.49" ry="2.99" transform="translate(8.52 70.42) rotate(-45)"/>
            <ellipse class="cls-1" cx="83.51" cy="30.68" rx="5.49" ry="2.99" transform="translate(2.76 68.04) rotate(-45)"/>
            <ellipse class="cls-1" cx="80.7" cy="33.49" rx="5.49" ry="2.99" transform="translate(-0.04 66.87) rotate(-45)"/>
            <ellipse class="cls-1" cx="86.38" cy="27.81" rx="5.49" ry="2.99" transform="translate(5.64 69.23) rotate(-45)"/>
          </g>
          <ellipse class="cls-1" cx="73.39" cy="37.64" rx="6.06" ry="3.3" transform="translate(-5.12 62.92) rotate(-45)"/>
          <ellipse class="cls-1" cx="77.74" cy="37.64" rx="6.06" ry="3.3" transform="translate(-3.85 66) rotate(-45)"/>
          <ellipse class="cls-1" cx="82.09" cy="37.64" rx="6.06" ry="3.3" transform="translate(-2.57 69.07) rotate(-45)"/>
          <ellipse class="cls-1" cx="90.79" cy="37.64" rx="6.06" ry="3.3" transform="translate(-0.03 75.22) rotate(-45)"/>
          <ellipse class="cls-1" cx="86.44" cy="37.64" rx="6.06" ry="3.3" transform="translate(-1.3 72.15) rotate(-45)"/>
          <ellipse class="cls-1" cx="95.13" cy="37.64" rx="6.06" ry="3.3" transform="translate(1.25 78.3) rotate(-45)"/>
          <g>
            <ellipse class="cls-1" cx="100.13" cy="37.3" rx="5.74" ry="3.12" transform="translate(2.95 81.73) rotate(-45)"/>
            <ellipse class="cls-1" cx="96.8" cy="40.63" rx="5.74" ry="3.12" transform="translate(-0.38 80.35) rotate(-45)"/>
            <ellipse class="cls-1" cx="93.47" cy="43.96" rx="5.74" ry="3.12" transform="translate(-3.71 78.97) rotate(-45)"/>
            <ellipse class="cls-1" cx="90.14" cy="47.29" rx="5.74" ry="3.12" transform="translate(-7.04 77.59) rotate(-45)"/>
            <ellipse class="cls-1" cx="86.81" cy="50.62" rx="5.74" ry="3.12" transform="translate(-10.37 76.21) rotate(-45)"/>
            <ellipse class="cls-1" cx="83.48" cy="53.95" rx="5.74" ry="3.12" transform="translate(-13.7 74.83) rotate(-45)"/>
            <ellipse class="cls-1" cx="80.15" cy="57.28" rx="5.74" ry="3.12" transform="translate(-17.03 73.45) rotate(-45)"/>
          </g>
          <ellipse class="cls-1" cx="75.21" cy="61.88" rx="6.06" ry="3.3" transform="translate(-21.73 71.3) rotate(-45)"/>
          <ellipse class="cls-1" cx="79.84" cy="61.88" rx="6.06" ry="3.3" transform="translate(-20.37 74.58) rotate(-45)"/>
          <ellipse class="cls-1" cx="84.48" cy="61.88" rx="6.06" ry="3.3" transform="translate(-19.02 77.86) rotate(-45)"/>
          <ellipse class="cls-1" cx="89.11" cy="61.88" rx="6.06" ry="3.3" transform="translate(-17.66 81.14) rotate(-45)"/>
          <ellipse class="cls-1" cx="93.75" cy="61.88" rx="6.06" ry="3.3" transform="translate(-16.3 84.42) rotate(-45)"/>
          <ellipse class="cls-1" cx="98.38" cy="61.88" rx="6.06" ry="3.3" transform="translate(-14.94 87.69) rotate(-45)"/>
          <ellipse class="cls-1" cx="107.66" cy="61.88" rx="6.06" ry="3.3" transform="translate(-12.23 94.25) rotate(-45)"/>
          <ellipse class="cls-1" cx="103.02" cy="61.88" rx="6.06" ry="3.3" transform="translate(-13.58 90.97) rotate(-45)"/>
          <ellipse class="cls-1" cx="112.29" cy="61.88" rx="6.06" ry="3.3" transform="translate(-10.87 97.53) rotate(-45)"/>
        </g>
        <g>
          <ellipse class="cls-1" cx="126.19" cy="5.04" rx="5.91" ry="3.21" transform="translate(33.4 90.71) rotate(-45)"/>
          <ellipse class="cls-1" cx="126.19" cy="8.72" rx="5.91" ry="3.21" transform="translate(30.79 91.78) rotate(-45)"/>
          <ellipse class="cls-1" cx="126.19" cy="12.4" rx="5.91" ry="3.21" transform="translate(28.19 92.86) rotate(-45)"/>
          <ellipse class="cls-1" cx="126.19" cy="16.08" rx="5.91" ry="3.21" transform="translate(25.59 93.94) rotate(-45)"/>
          <ellipse class="cls-1" cx="126.19" cy="19.76" rx="5.91" ry="3.21" transform="translate(22.98 95.02) rotate(-45)"/>
          <ellipse class="cls-1" cx="126.19" cy="23.45" rx="5.91" ry="3.21" transform="translate(20.38 96.1) rotate(-45)"/>
          <ellipse class="cls-1" cx="126.19" cy="27.13" rx="5.91" ry="3.21" transform="translate(17.78 97.17) rotate(-45)"/>
          <ellipse class="cls-1" cx="126.19" cy="30.81" rx="5.91" ry="3.21" transform="translate(15.18 98.25) rotate(-45)"/>
          <ellipse class="cls-1" cx="126.19" cy="34.49" rx="5.91" ry="3.21" transform="translate(12.57 99.33) rotate(-45)"/>
          <ellipse class="cls-1" cx="126.19" cy="38.17" rx="5.91" ry="3.21" transform="translate(9.97 100.41) rotate(-45)"/>
          <ellipse class="cls-1" cx="126.19" cy="41.85" rx="5.91" ry="3.21" transform="translate(7.37 101.49) rotate(-45)"/>
          <ellipse class="cls-1" cx="126.19" cy="45.53" rx="5.91" ry="3.21" transform="translate(4.76 102.57) rotate(-45)"/>
          <ellipse class="cls-1" cx="126.19" cy="49.21" rx="5.91" ry="3.21" transform="translate(2.16 103.64) rotate(-45)"/>
          <ellipse class="cls-1" cx="126.19" cy="52.9" rx="5.91" ry="3.21" transform="translate(-0.44 104.72) rotate(-45)"/>
          <ellipse class="cls-1" cx="126.19" cy="56.58" rx="5.91" ry="3.21" transform="translate(-3.05 105.8) rotate(-45)"/>
          <ellipse class="cls-1" cx="126.19" cy="60.26" rx="5.91" ry="3.21" transform="translate(-5.65 106.88) rotate(-45)"/>
          <ellipse class="cls-1" cx="126.19" cy="63.94" rx="5.91" ry="3.21" transform="translate(-8.25 107.96) rotate(-45)"/>
          <ellipse class="cls-1" cx="126.19" cy="67.62" rx="5.91" ry="3.21" transform="translate(-10.85 109.04) rotate(-45)"/>
          <ellipse class="cls-1" cx="126.19" cy="71.3" rx="5.91" ry="3.21" transform="translate(-13.46 110.11) rotate(-45)"/>
          <ellipse class="cls-1" cx="126.19" cy="74.98" rx="5.91" ry="3.21" transform="translate(-16.06 111.19) rotate(-45)"/>
          <ellipse class="cls-1" cx="126.19" cy="78.66" rx="5.91" ry="3.21" transform="translate(-18.66 112.27) rotate(-45)"/>
        </g>
      </g>
      <g>
        <rect class="cls-1" x="266.35" y="51.85" width="14.72" height="7.03"/>
        <rect class="cls-1" x="258.47" y="59.46" width="10.77" height="7.03"/>
        <rect class="cls-1" x="274.12" y="44.24" width="29.35" height="7.03"/>
        <rect class="cls-1" x="281.9" y="36.63" width="14.19" height="7.03"/>
        <rect class="cls-1" x="297.46" y="51.85" width="13.03" height="7.03"/>
        <rect class="cls-1" x="302.47" y="59.46" width="11.15" height="7.03"/>
        <rect class="cls-1" x="297.46" y="67.07" width="8.21" height="7.03"/>
        <rect class="cls-1" x="322.73" y="36.63" width="8.13" height="7.03"/>
        <rect class="cls-1" x="322.73" y="29.02" width="8.13" height="7.03"/>
        <rect class="cls-1" x="322.73" y="21.4" width="8.13" height="7.03"/>
        <rect class="cls-1" x="322.73" y="13.79" width="8.13" height="7.03"/>
        <rect class="cls-1" x="318.69" y="6.18" width="12.17" height="7.03"/>
        <rect class="cls-1" x="312.39" y="44.24" width="18.46" height="7.03"/>
        <rect class="cls-1" x="322.73" y="51.85" width="8.13" height="7.03"/>
        <rect class="cls-1" x="322.73" y="59.46" width="8.13" height="7.03"/>
        <rect class="cls-1" x="322.73" y="67.07" width="8.13" height="7.03"/>
        <rect class="cls-1" x="322.73" y="74.69" width="8.13" height="7.03"/>
        <rect class="cls-1" x="322.73" y="82.3" width="11.38" height="7.03"/>
        <rect class="cls-1" x="289.68" y="29.02" width="9.5" height="7.03"/>
        <rect class="cls-1" x="281.93" y="21.4" width="14.38" height="7.03"/>
      </g>
      <g>
        <circle class="cls-1" cx="4.91" cy="103.78" r="4.82"/>
        <circle class="cls-1" cx="14.46" cy="103.78" r="4.82"/>
        <circle class="cls-1" cx="24" cy="103.78" r="4.82"/>
        <circle class="cls-1" cx="33.54" cy="103.78" r="4.82"/>
        <circle class="cls-1" cx="43.08" cy="103.78" r="4.82"/>
        <circle class="cls-1" cx="38.54" cy="120.05" r="4.82"/>
        <circle class="cls-1" cx="38.54" cy="112.85" r="4.82"/>
        <circle class="cls-1" cx="38.54" cy="128.02" r="4.82"/>
        <circle class="cls-1" cx="52.62" cy="103.78" r="4.82"/>
        <circle class="cls-1" cx="62.17" cy="103.78" r="4.82"/>
        <circle class="cls-1" cx="71.71" cy="103.78" r="4.82"/>
        <g>
          <circle class="cls-1" cx="34.22" cy="62.76" r="4.82"/>
          <circle class="cls-1" cx="25.36" cy="65.13" r="4.82"/>
          <circle class="cls-1" cx="18.84" cy="71.54" r="4.82"/>
          <circle class="cls-1" cx="17.86" cy="79.67" r="4.82"/>
          <circle class="cls-1" cx="23.5" cy="86.73" r="4.82"/>
          <circle class="cls-1" cx="32.08" cy="89.86" r="4.82"/>
          <circle class="cls-1" cx="41.25" cy="90.06" r="4.82"/>
          <circle class="cls-1" cx="50.12" cy="88" r="4.82"/>
          <circle class="cls-1" cx="56.69" cy="81.63" r="4.82"/>
          <circle class="cls-1" cx="57.31" cy="73.27" r="4.82"/>
          <circle class="cls-1" cx="52.42" cy="65.62" r="4.82"/>
          <circle class="cls-1" cx="43.43" cy="62.54" r="4.82"/>
        </g>
      </g>
    </g>
  </g>
</svg>
