<svg xmlns="http://www.w3.org/2000/svg" width="457.18" height="155.64" viewBox="0 0 457.18 155.64">
  <defs>
    <style>
      .cls-1 {
        fill: #333;
      }
    </style>
  </defs>
  <g id="Layer_6" data-name="Layer 6">
    <g>
      <circle class="cls-1" cx="397.56" cy="97.47" r="4.55"/>
      <circle class="cls-1" cx="400.7" cy="94.33" r="4.55"/>
      <circle class="cls-1" cx="403.84" cy="91.2" r="4.55"/>
      <circle class="cls-1" cx="406.97" cy="88.06" r="4.55"/>
      <circle class="cls-1" cx="410.11" cy="84.92" r="4.55"/>
      <circle class="cls-1" cx="413.25" cy="81.78" r="4.55"/>
      <circle class="cls-1" cx="415.94" cy="79.09" r="4.55"/>
      <circle class="cls-1" cx="415.94" cy="74.72" r="4.55"/>
      <circle class="cls-1" cx="415.94" cy="70.36" r="4.55"/>
      <circle class="cls-1" cx="415.94" cy="65.99" r="4.55"/>
      <circle class="cls-1" cx="415.94" cy="61.63" r="4.55"/>
      <circle class="cls-1" cx="415.94" cy="57.26" r="4.55"/>
      <circle class="cls-1" cx="452.02" cy="117.5" r="4.55"/>
      <circle class="cls-1" cx="452.02" cy="113.16" r="4.55"/>
      <circle class="cls-1" cx="452.02" cy="108.81" r="4.55"/>
      <circle class="cls-1" cx="452.02" cy="104.47" r="4.55"/>
      <circle class="cls-1" cx="452.02" cy="100.13" r="4.55"/>
      <circle class="cls-1" cx="452.02" cy="95.79" r="4.55"/>
      <circle class="cls-1" cx="452.02" cy="91.45" r="4.55"/>
      <circle class="cls-1" cx="452.02" cy="87.11" r="4.55"/>
      <circle class="cls-1" cx="452.02" cy="82.77" r="4.55"/>
      <circle class="cls-1" cx="452.02" cy="78.43" r="4.55"/>
      <circle class="cls-1" cx="452.02" cy="74.09" r="4.55"/>
      <circle class="cls-1" cx="452.02" cy="69.75" r="4.55"/>
      <circle class="cls-1" cx="452.02" cy="65.4" r="4.55"/>
      <circle class="cls-1" cx="452.02" cy="61.06" r="4.55"/>
      <circle class="cls-1" cx="452.02" cy="56.72" r="4.55"/>
      <circle class="cls-1" cx="452.02" cy="52.38" r="4.55"/>
      <circle class="cls-1" cx="452.02" cy="48.04" r="4.55"/>
      <circle class="cls-1" cx="418.66" cy="81.81" r="4.55"/>
      <circle class="cls-1" cx="421.85" cy="85" r="4.55"/>
      <circle class="cls-1" cx="425.03" cy="88.18" r="4.55"/>
      <circle class="cls-1" cx="428.21" cy="91.36" r="4.55"/>
      <circle class="cls-1" cx="431.4" cy="94.55" r="4.55"/>
      <circle class="cls-1" cx="434.58" cy="97.73" r="4.55"/>
    </g>
    <g>
      <rect class="cls-1" x="338.76" y="95.41" width="8.57" height="8.57" transform="translate(29.98 271.76) rotate(-45)"/>
      <rect class="cls-1" x="332.63" y="95.41" width="8.57" height="8.57" transform="translate(28.19 267.43) rotate(-45)"/>
      <rect class="cls-1" x="326.32" y="95.41" width="8.57" height="8.57" transform="translate(26.34 262.97) rotate(-45)"/>
      <g>
        <rect class="cls-1" x="334.73" y="72.95" width="8.57" height="8.57" transform="translate(44.68 262.34) rotate(-45)"/>
        <rect class="cls-1" x="340.79" y="66.89" width="8.57" height="8.57" transform="translate(50.74 264.85) rotate(-45)"/>
        <rect class="cls-1" x="340.78" y="79.01" width="8.57" height="8.57" transform="translate(42.17 268.39) rotate(-45)"/>
      </g>
      <g>
        <rect class="cls-1" x="365.11" y="72.95" width="8.57" height="8.57" transform="translate(685.21 -129.36) rotate(135)"/>
        <rect class="cls-1" x="359.05" y="79.01" width="8.57" height="8.57" transform="translate(679.15 -114.73) rotate(135)"/>
        <rect class="cls-1" x="359.06" y="66.89" width="8.57" height="8.57" transform="translate(670.6 -135.42) rotate(135)"/>
      </g>
      <rect class="cls-1" x="344.79" y="95.41" width="8.57" height="8.57" transform="translate(31.75 276.03) rotate(-45)"/>
      <rect class="cls-1" x="350.83" y="95.41" width="8.57" height="8.57" transform="translate(33.52 280.3) rotate(-45)"/>
      <rect class="cls-1" x="356.87" y="95.41" width="8.57" height="8.57" transform="translate(35.29 284.57) rotate(-45)"/>
      <rect class="cls-1" x="362.91" y="95.41" width="8.57" height="8.57" transform="translate(37.06 288.84) rotate(-45)"/>
      <rect class="cls-1" x="368.95" y="95.41" width="8.57" height="8.57" transform="translate(38.83 293.11) rotate(-45)"/>
      <rect class="cls-1" x="366.04" y="110.4" width="8.57" height="8.57" transform="translate(27.38 295.45) rotate(-45)"/>
      <rect class="cls-1" x="372.11" y="110.4" width="8.57" height="8.57" transform="translate(29.15 299.74) rotate(-45)"/>
      <rect class="cls-1" x="378.14" y="110.4" width="8.57" height="8.57" transform="translate(30.92 304.01) rotate(-45)"/>
      <rect class="cls-1" x="384.2" y="110.4" width="8.57" height="8.57" transform="translate(32.69 308.29) rotate(-45)"/>
      <rect class="cls-1" x="381.68" y="125.03" width="8.57" height="8.57" transform="translate(21.61 310.79) rotate(-45)"/>
      <rect class="cls-1" x="387.65" y="125.03" width="8.57" height="8.57" transform="translate(23.36 315.01) rotate(-45)"/>
      <rect class="cls-1" x="393.68" y="125.03" width="8.57" height="8.57" transform="translate(25.12 319.28) rotate(-45)"/>
      <rect class="cls-1" x="399.73" y="125.03" width="8.57" height="8.57" transform="translate(26.9 323.55) rotate(-45)"/>
      <polygon class="cls-1" points="379.36 105.66 385.33 99.69 379.27 93.63 373.3 99.6 373.21 99.69 370.32 102.58 370.32 102.58 367.33 105.57 364.26 108.64 361.27 111.63 361.27 111.63 361.22 111.68 361.22 111.68 355.16 117.74 361.22 123.8 364.35 120.67 364.35 120.67 370.41 114.61 373.3 111.72 379.27 105.75 379.27 105.75 379.31 105.7 379.36 105.66 379.36 105.66"/>
      <rect class="cls-1" x="369.11" y="118.87" width="33.92" height="8.57" transform="translate(25.99 309.06) rotate(-45)"/>
      <rect class="cls-1" x="384.67" y="133.48" width="33.89" height="8.57" transform="translate(20.22 324.33) rotate(-45)"/>
    </g>
    <g>
      <g>
        <polygon class="cls-1" points="216.09 155.34 221.04 146.77 211.14 146.77 216.09 155.34"/>
        <polygon class="cls-1" points="211.13 146.86 216.08 138.29 206.18 138.29 211.13 146.86"/>
        <polygon class="cls-1" points="206.19 138.39 211.14 129.82 201.25 129.82 206.19 138.39"/>
        <polygon class="cls-1" points="201.26 129.84 206.21 121.27 196.31 121.27 201.26 129.84"/>
        <polygon class="cls-1" points="208.15 138.39 213.1 129.82 203.2 129.82 208.15 138.39"/>
        <polygon class="cls-1" points="210.11 138.39 215.06 129.82 205.16 129.82 210.11 138.39"/>
        <polygon class="cls-1" points="212.07 138.39 217.01 129.82 207.12 129.82 212.07 138.39"/>
        <polygon class="cls-1" points="214.02 138.39 218.97 129.82 209.07 129.82 214.02 138.39"/>
        <polygon class="cls-1" points="215.98 138.39 220.93 129.82 211.03 129.82 215.98 138.39"/>
        <polygon class="cls-1" points="218.03 155.34 222.98 146.77 213.09 146.77 218.03 155.34"/>
        <polygon class="cls-1" points="219.98 155.34 224.93 146.77 215.03 146.77 219.98 155.34"/>
        <polygon class="cls-1" points="221.92 155.34 226.87 146.77 216.97 146.77 221.92 155.34"/>
        <polygon class="cls-1" points="223.87 155.34 228.82 146.77 218.92 146.77 223.87 155.34"/>
        <polygon class="cls-1" points="225.81 155.34 230.76 146.77 220.86 146.77 225.81 155.34"/>
        <polygon class="cls-1" points="227.76 155.34 232.71 146.77 222.81 146.77 227.76 155.34"/>
        <polygon class="cls-1" points="229.7 155.34 234.65 146.77 224.75 146.77 229.7 155.34"/>
        <polygon class="cls-1" points="231.65 155.34 236.59 146.77 226.7 146.77 231.65 155.34"/>
        <polygon class="cls-1" points="233.59 155.34 238.54 146.77 228.64 146.77 233.59 155.34"/>
        <polygon class="cls-1" points="235.53 155.34 240.48 146.77 230.59 146.77 235.53 155.34"/>
        <polygon class="cls-1" points="237.48 155.34 242.43 146.77 232.53 146.77 237.48 155.34"/>
        <polygon class="cls-1" points="239.42 155.34 244.37 146.77 234.47 146.77 239.42 155.34"/>
        <polygon class="cls-1" points="241.37 155.34 246.31 146.77 236.42 146.77 241.37 155.34"/>
        <polygon class="cls-1" points="243.31 155.34 248.26 146.77 238.36 146.77 243.31 155.34"/>
        <polygon class="cls-1" points="245.25 155.34 250.2 146.77 240.31 146.77 245.25 155.34"/>
        <polygon class="cls-1" points="247.2 155.34 252.15 146.77 242.25 146.77 247.2 155.34"/>
        <polygon class="cls-1" points="249.14 155.34 254.09 146.77 244.2 146.77 249.14 155.34"/>
        <polygon class="cls-1" points="251.09 155.34 256.04 146.77 246.14 146.77 251.09 155.34"/>
      </g>
      <g>
        <polygon class="cls-1" points="222.19 119.97 227.14 111.4 217.24 111.4 222.19 119.97"/>
        <polygon class="cls-1" points="223.81 119.97 228.76 111.4 218.87 111.4 223.81 119.97"/>
        <polygon class="cls-1" points="225.44 119.97 230.39 111.4 220.49 111.4 225.44 119.97"/>
        <polygon class="cls-1" points="227.06 119.97 232.01 111.4 222.11 111.4 227.06 119.97"/>
        <polygon class="cls-1" points="228.68 119.97 233.63 111.4 223.74 111.4 228.68 119.97"/>
        <polygon class="cls-1" points="230.31 119.97 235.26 111.4 225.36 111.4 230.31 119.97"/>
        <polygon class="cls-1" points="231.93 119.97 236.88 111.4 226.98 111.4 231.93 119.97"/>
        <polygon class="cls-1" points="233.55 119.97 238.5 111.4 228.61 111.4 233.55 119.97"/>
        <polygon class="cls-1" points="235.18 119.97 240.13 111.4 230.23 111.4 235.18 119.97"/>
        <polygon class="cls-1" points="236.8 119.97 241.75 111.4 231.85 111.4 236.8 119.97"/>
        <polygon class="cls-1" points="217.27 111.4 222.22 102.83 212.32 102.83 217.27 111.4"/>
        <polygon class="cls-1" points="220.65 111.4 225.6 102.83 215.7 102.83 220.65 111.4"/>
        <polygon class="cls-1" points="218.96 111.4 223.91 102.83 214.01 102.83 218.96 111.4"/>
        <polygon class="cls-1" points="212.29 102.84 217.24 94.27 207.34 94.27 212.29 102.84"/>
        <polygon class="cls-1" points="213.95 102.84 218.9 94.27 209 94.27 213.95 102.84"/>
        <polygon class="cls-1" points="215.61 102.84 220.56 94.27 210.66 94.27 215.61 102.84"/>
        <polygon class="cls-1" points="217.27 102.84 222.22 94.27 212.32 94.27 217.27 102.84"/>
        <polygon class="cls-1" points="218.93 102.84 223.87 94.27 213.98 94.27 218.93 102.84"/>
        <polygon class="cls-1" points="220.59 102.84 225.53 94.27 215.64 94.27 220.59 102.84"/>
        <polygon class="cls-1" points="222.24 102.84 227.19 94.27 217.3 94.27 222.24 102.84"/>
        <polygon class="cls-1" points="225.56 102.84 230.51 94.27 220.62 94.27 225.56 102.84"/>
        <polygon class="cls-1" points="223.9 102.84 228.85 94.27 218.96 94.27 223.9 102.84"/>
        <polygon class="cls-1" points="233.28 102.84 238.23 94.27 228.33 94.27 233.28 102.84"/>
        <polygon class="cls-1" points="234.95 102.84 239.9 94.27 230 94.27 234.95 102.84"/>
        <polygon class="cls-1" points="236.63 102.84 241.58 94.27 231.68 94.27 236.63 102.84"/>
        <polygon class="cls-1" points="238.3 102.84 243.25 94.27 233.35 94.27 238.3 102.84"/>
        <polygon class="cls-1" points="239.97 102.84 244.92 94.27 235.03 94.27 239.97 102.84"/>
        <polygon class="cls-1" points="241.65 102.84 246.6 94.27 236.7 94.27 241.65 102.84"/>
        <polygon class="cls-1" points="251.56 94.28 256.5 85.7 246.61 85.7 251.56 94.28"/>
        <polygon class="cls-1" points="241.74 111.4 246.69 102.83 236.79 102.83 241.74 111.4"/>
        <polygon class="cls-1" points="238.22 111.4 243.17 102.83 233.27 102.83 238.22 111.4"/>
        <polygon class="cls-1" points="239.98 111.4 244.93 102.83 235.03 102.83 239.98 111.4"/>
        <polygon class="cls-1" points="246.67 102.84 251.62 94.27 241.72 94.27 246.67 102.84"/>
        <polygon class="cls-1" points="245 102.84 249.94 94.27 240.05 94.27 245 102.84"/>
        <polygon class="cls-1" points="243.32 102.84 248.27 94.27 238.37 94.27 243.32 102.84"/>
        <polygon class="cls-1" points="231.86 128.54 236.8 119.97 226.91 119.97 231.86 128.54"/>
        <polygon class="cls-1" points="228.71 128.54 233.66 119.97 223.76 119.97 228.71 128.54"/>
        <polygon class="cls-1" points="230.28 128.54 235.23 119.97 225.34 119.97 230.28 128.54"/>
        <polygon class="cls-1" points="227.14 128.54 232.09 119.97 222.19 119.97 227.14 128.54"/>
        <polygon class="cls-1" points="232.1 137.11 237.05 128.54 227.15 128.54 232.1 137.11"/>
        <polygon class="cls-1" points="233.92 137.11 238.87 128.54 228.97 128.54 233.92 137.11"/>
        <polygon class="cls-1" points="235.74 137.11 240.68 128.54 230.79 128.54 235.74 137.11"/>
        <polygon class="cls-1" points="237.55 137.11 242.5 128.54 232.6 128.54 237.55 137.11"/>
        <polygon class="cls-1" points="239.37 137.11 244.32 128.54 234.42 128.54 239.37 137.11"/>
        <polygon class="cls-1" points="241.19 137.11 246.13 128.54 236.24 128.54 241.19 137.11"/>
        <polygon class="cls-1" points="243 137.11 247.95 128.54 238.06 128.54 243 137.11"/>
        <polygon class="cls-1" points="244.82 137.11 249.77 128.54 239.87 128.54 244.82 137.11"/>
        <polygon class="cls-1" points="246.64 137.11 251.59 128.54 241.69 128.54 246.64 137.11"/>
        <polygon class="cls-1" points="248.45 137.11 253.4 128.54 243.5 128.54 248.45 137.11"/>
        <polygon class="cls-1" points="250.27 137.11 255.22 128.54 245.32 128.54 250.27 137.11"/>
        <polygon class="cls-1" points="252.09 137.11 257.04 128.54 247.14 128.54 252.09 137.11"/>
        <polygon class="cls-1" points="253.9 137.11 258.85 128.54 248.96 128.54 253.9 137.11"/>
        <polygon class="cls-1" points="255.72 137.11 260.67 128.54 250.77 128.54 255.72 137.11"/>
        <polygon class="cls-1" points="257.54 137.11 262.49 128.54 252.59 128.54 257.54 137.11"/>
        <polygon class="cls-1" points="262.49 128.48 267.44 119.91 257.55 119.91 262.49 128.48"/>
      </g>
    </g>
    <g>
      <g>
        <polygon class="cls-1" points="196.75 80.64 189.73 80.64 189.73 83.64 186.7 83.64 186.7 99.19 189.84 99.19 189.84 96.19 196.86 96.19 196.75 80.64"/>
        <polygon class="cls-1" points="190.25 64.99 190.25 60.53 190.25 51.11 190.25 44.98 186.7 44.98 186.7 41.92 181.56 41.92 181.56 38.85 176.97 38.85 176.97 54.4 181.52 54.4 181.52 57.47 186.7 57.47 186.7 60.07 181.56 60.07 181.56 124.23 186.7 124.23 186.7 64.99 190.25 64.99"/>
        <rect class="cls-1" x="186.7" y="83.58" width="3.11" height="15.55"/>
      </g>
      <polygon class="cls-1" points="130.66 114.36 134.29 114.36 134.29 112.33 137.53 112.33 137.53 109.31 140.58 109.31 140.58 106.29 143.63 106.29 143.63 103.27 146.67 103.27 146.67 100.25 149.72 100.25 149.72 97.22 152.77 97.22 152.77 94.2 155.75 94.2 155.75 91.18 158.87 91.18 158.87 88.16 162 88.16 162 85.14 165.05 85.14 165.05 82.11 168.1 82.11 168.1 66.56 165.05 66.56 165.05 63.54 162 63.54 162 60.52 158.87 60.52 158.87 57.43 155.75 57.43 155.75 54.33 134.66 54.33 134.66 69.89 155.75 69.89 155.75 72.98 158.87 72.98 158.87 75.63 155.75 75.63 155.75 78.65 152.77 78.65 152.77 81.67 149.72 81.67 149.72 84.69 146.67 84.69 146.67 87.72 143.63 87.72 143.63 90.74 140.58 90.74 140.58 93.76 137.53 93.76 137.53 96.78 134.29 96.78 134.29 99.81 130.66 99.81 130.66 114.36"/>
    </g>
    <g>
      <g>
        <ellipse class="cls-1" cx="123.14" cy="4.99" rx="5.94" ry="3.23" transform="translate(32.54 88.53) rotate(-45)"/>
        <ellipse class="cls-1" cx="123.14" cy="8.72" rx="5.94" ry="3.23" transform="translate(29.9 89.62) rotate(-45)"/>
        <ellipse class="cls-1" cx="123.14" cy="12.45" rx="5.94" ry="3.23" transform="translate(27.26 90.72) rotate(-45)"/>
        <ellipse class="cls-1" cx="123.14" cy="16.18" rx="5.94" ry="3.23" transform="translate(24.62 91.81) rotate(-45)"/>
        <ellipse class="cls-1" cx="123.14" cy="19.91" rx="5.94" ry="3.23" transform="translate(21.99 92.9) rotate(-45)"/>
        <ellipse class="cls-1" cx="123.14" cy="23.64" rx="5.94" ry="3.23" transform="translate(19.35 93.99) rotate(-45)"/>
        <ellipse class="cls-1" cx="123.14" cy="27.37" rx="5.94" ry="3.23" transform="translate(16.71 95.09) rotate(-45)"/>
        <ellipse class="cls-1" cx="123.14" cy="31.1" rx="5.94" ry="3.23" transform="translate(14.07 96.18) rotate(-45)"/>
        <ellipse class="cls-1" cx="123.14" cy="34.83" rx="5.94" ry="3.23" transform="translate(11.44 97.27) rotate(-45)"/>
        <ellipse class="cls-1" cx="123.14" cy="38.56" rx="5.94" ry="3.23" transform="translate(8.8 98.36) rotate(-45)"/>
        <ellipse class="cls-1" cx="123.14" cy="42.29" rx="5.94" ry="3.23" transform="translate(6.16 99.46) rotate(-45)"/>
        <ellipse class="cls-1" cx="123.14" cy="46.02" rx="5.94" ry="3.23" transform="translate(3.52 100.55) rotate(-45)"/>
        <ellipse class="cls-1" cx="123.14" cy="49.75" rx="5.94" ry="3.23" transform="translate(0.89 101.64) rotate(-45)"/>
        <ellipse class="cls-1" cx="123.14" cy="53.48" rx="5.94" ry="3.23" transform="translate(-1.75 102.73) rotate(-45)"/>
        <ellipse class="cls-1" cx="123.14" cy="57.21" rx="5.94" ry="3.23" transform="translate(-4.39 103.83) rotate(-45)"/>
        <ellipse class="cls-1" cx="123.14" cy="60.94" rx="5.94" ry="3.23" transform="translate(-7.03 104.92) rotate(-45)"/>
        <ellipse class="cls-1" cx="123.14" cy="64.67" rx="5.94" ry="3.23" transform="translate(-9.66 106.01) rotate(-45)"/>
        <ellipse class="cls-1" cx="123.14" cy="68.4" rx="5.94" ry="3.23" transform="translate(-12.3 107.1) rotate(-45)"/>
        <ellipse class="cls-1" cx="123.14" cy="72.38" rx="5.94" ry="3.23" transform="translate(-15.12 108.27) rotate(-45)"/>
        <ellipse class="cls-1" cx="123.14" cy="76.12" rx="5.94" ry="3.23" transform="translate(-17.76 109.37) rotate(-45)"/>
        <ellipse class="cls-1" cx="123.14" cy="80.17" rx="5.94" ry="3.23" transform="translate(-20.62 110.55) rotate(-45)"/>
      </g>
      <g>
        <ellipse class="cls-1" cx="87.77" cy="22.1" rx="5.94" ry="3.23" transform="translate(10.08 68.54) rotate(-45)"/>
        <ellipse class="cls-1" cx="91.99" cy="17.88" rx="5.94" ry="3.23" transform="translate(14.3 70.28) rotate(-45)"/>
        <ellipse class="cls-1" cx="87.99" cy="17.88" rx="5.94" ry="3.23" transform="translate(13.13 67.45) rotate(-45)"/>
        <ellipse class="cls-1" cx="83.99" cy="17.88" rx="5.94" ry="3.23" transform="translate(11.96 64.62) rotate(-45)"/>
        <ellipse class="cls-1" cx="79.99" cy="17.88" rx="5.94" ry="3.23" transform="translate(10.78 61.79) rotate(-45)"/>
        <ellipse class="cls-1" cx="75.98" cy="17.88" rx="5.94" ry="3.23" transform="translate(9.61 58.96) rotate(-45)"/>
        <ellipse class="cls-1" cx="71.98" cy="17.88" rx="5.94" ry="3.23" transform="translate(8.44 56.13) rotate(-45)"/>
        <ellipse class="cls-1" cx="83.67" cy="26.2" rx="5.94" ry="3.23" transform="translate(5.98 66.84) rotate(-45)"/>
        <ellipse class="cls-1" cx="79.56" cy="30.31" rx="5.94" ry="3.23" transform="translate(1.87 65.13) rotate(-45)"/>
        <ellipse class="cls-1" cx="75.64" cy="35.35" rx="5.94" ry="3.23" transform="translate(-2.85 63.84) rotate(-45)"/>
        <ellipse class="cls-1" cx="71.63" cy="35.35" rx="5.94" ry="3.23" transform="translate(-4.02 61.01) rotate(-45)"/>
        <ellipse class="cls-1" cx="79.53" cy="35.35" rx="5.94" ry="3.23" transform="translate(-1.71 66.59) rotate(-45)"/>
        <ellipse class="cls-1" cx="83.42" cy="35.35" rx="5.94" ry="3.23" transform="translate(-0.57 69.34) rotate(-45)"/>
        <ellipse class="cls-1" cx="87.31" cy="35.35" rx="5.94" ry="3.23" transform="translate(0.57 72.1) rotate(-45)"/>
        <ellipse class="cls-1" cx="91.21" cy="35.35" rx="5.94" ry="3.23" transform="translate(1.71 74.85) rotate(-45)"/>
        <ellipse class="cls-1" cx="95.1" cy="35.35" rx="5.94" ry="3.23" transform="translate(2.85 77.6) rotate(-45)"/>
        <ellipse class="cls-1" cx="98.99" cy="35.35" rx="5.94" ry="3.23" transform="translate(3.99 80.35) rotate(-45)"/>
        <ellipse class="cls-1" cx="94.88" cy="39.46" rx="5.94" ry="3.23" transform="translate(-0.11 78.65) rotate(-45)"/>
        <ellipse class="cls-1" cx="90.77" cy="43.57" rx="5.94" ry="3.23" transform="translate(-4.22 76.95) rotate(-45)"/>
        <ellipse class="cls-1" cx="86.67" cy="47.68" rx="5.94" ry="3.23" transform="translate(-8.33 75.25) rotate(-45)"/>
        <ellipse class="cls-1" cx="82.51" cy="51.84" rx="5.94" ry="3.23" transform="translate(-12.49 73.52) rotate(-45)"/>
        <ellipse class="cls-1" cx="78.32" cy="56.02" rx="5.94" ry="3.23" transform="translate(-16.67 71.79) rotate(-45)"/>
        <ellipse class="cls-1" cx="73.13" cy="60.2" rx="5.94" ry="3.23" transform="translate(-21.15 69.34) rotate(-45)"/>
        <ellipse class="cls-1" cx="77.01" cy="60.2" rx="5.94" ry="3.23" transform="translate(-20.02 72.09) rotate(-45)"/>
        <ellipse class="cls-1" cx="80.89" cy="60.2" rx="5.94" ry="3.23" transform="translate(-18.88 74.83) rotate(-45)"/>
        <ellipse class="cls-1" cx="84.76" cy="60.2" rx="5.94" ry="3.23" transform="translate(-17.74 77.57) rotate(-45)"/>
        <ellipse class="cls-1" cx="88.64" cy="60.2" rx="5.94" ry="3.23" transform="translate(-16.61 80.31) rotate(-45)"/>
        <ellipse class="cls-1" cx="92.52" cy="60.2" rx="5.94" ry="3.23" transform="translate(-15.47 83.06) rotate(-45)"/>
        <ellipse class="cls-1" cx="96.4" cy="60.2" rx="5.94" ry="3.23" transform="translate(-14.33 85.8) rotate(-45)"/>
        <ellipse class="cls-1" cx="100.28" cy="60.2" rx="5.94" ry="3.23" transform="translate(-13.2 88.54) rotate(-45)"/>
        <ellipse class="cls-1" cx="104.16" cy="60.2" rx="5.94" ry="3.23" transform="translate(-12.06 91.28) rotate(-45)"/>
        <ellipse class="cls-1" cx="108.24" cy="60.2" rx="5.94" ry="3.23" transform="translate(-10.87 94.17) rotate(-45)"/>
      </g>
    </g>
    <g>
      <circle class="cls-1" cx="5.47" cy="90.72" r="4.95"/>
      <circle class="cls-1" cx="13.54" cy="90.72" r="4.95"/>
      <circle class="cls-1" cx="21.6" cy="90.72" r="4.95"/>
      <circle class="cls-1" cx="29.66" cy="90.72" r="4.95"/>
      <circle class="cls-1" cx="37.73" cy="90.72" r="4.95"/>
      <circle class="cls-1" cx="37.73" cy="50.33" r="4.95"/>
      <circle class="cls-1" cx="45.71" cy="51.19" r="4.95"/>
      <circle class="cls-1" cx="52.83" cy="54.32" r="4.95"/>
      <circle class="cls-1" cx="57.21" cy="60.19" r="4.95"/>
      <circle class="cls-1" cx="56.59" cy="67.7" r="4.95"/>
      <circle class="cls-1" cx="51.19" cy="73.34" r="4.95"/>
      <circle class="cls-1" cx="43.6" cy="75.69" r="4.95"/>
      <circle class="cls-1" cx="35.85" cy="76.24" r="4.95"/>
      <circle class="cls-1" cx="28.18" cy="75.45" r="4.95"/>
      <circle class="cls-1" cx="21.21" cy="72.56" r="4.95"/>
      <circle class="cls-1" cx="16.9" cy="66.37" r="4.95"/>
      <circle class="cls-1" cx="17.06" cy="58.78" r="4.95"/>
      <circle class="cls-1" cx="22.15" cy="53.22" r="4.95"/>
      <circle class="cls-1" cx="29.58" cy="50.95" r="4.95"/>
      <circle class="cls-1" cx="37.73" cy="98.76" r="4.95"/>
      <circle class="cls-1" cx="37.73" cy="106.81" r="4.95"/>
      <circle class="cls-1" cx="37.73" cy="114.86" r="4.95"/>
      <circle class="cls-1" cx="45.79" cy="90.72" r="4.95"/>
      <circle class="cls-1" cx="53.85" cy="90.72" r="4.95"/>
      <circle class="cls-1" cx="61.91" cy="90.72" r="4.95"/>
      <circle class="cls-1" cx="69.98" cy="90.72" r="4.95"/>
    </g>
    <g>
      <rect class="cls-1" x="257.03" y="48.17" width="14.98" height="7.15"/>
      <rect class="cls-1" x="249.01" y="55.91" width="12.63" height="7.15"/>
      <rect class="cls-1" x="264.94" y="40.42" width="29.88" height="7.15"/>
      <rect class="cls-1" x="272.86" y="32.67" width="14.45" height="7.15"/>
      <rect class="cls-1" x="288.69" y="48.17" width="13.26" height="7.15"/>
      <rect class="cls-1" x="293.8" y="55.91" width="11.35" height="7.15"/>
      <rect class="cls-1" x="288.69" y="63.66" width="10.3" height="7.15"/>
      <rect class="cls-1" x="314.41" y="32.67" width="8.27" height="7.15"/>
      <rect class="cls-1" x="314.41" y="24.92" width="8.27" height="7.15"/>
      <rect class="cls-1" x="314.41" y="17.18" width="8.27" height="7.15"/>
      <rect class="cls-1" x="314.41" y="9.43" width="8.27" height="7.15"/>
      <rect class="cls-1" x="310.3" y="1.68" width="12.38" height="7.15"/>
      <rect class="cls-1" x="303.9" y="40.42" width="18.79" height="7.15"/>
      <rect class="cls-1" x="314.41" y="48.17" width="8.27" height="7.15"/>
      <rect class="cls-1" x="314.41" y="55.91" width="8.27" height="7.15"/>
      <rect class="cls-1" x="314.41" y="63.66" width="8.27" height="7.15"/>
      <rect class="cls-1" x="314.41" y="71.41" width="8.27" height="7.15"/>
      <rect class="cls-1" x="314.41" y="79.16" width="11.58" height="7.15"/>
      <rect class="cls-1" x="280.77" y="24.92" width="9.67" height="7.15"/>
      <rect class="cls-1" x="272.89" y="17.18" width="14.64" height="7.15"/>
    </g>
  </g>
</svg>
