<svg id="Layer_1" data-name="Layer 1" xmlns="http://www.w3.org/2000/svg" viewBox="0 0 118.65 239.15"><polyline points="23.23 184.04 31.31 184.04 31.31 152.11 39.17 152.11 39.17 144.25 47.02 144.25 47.02 136.4 54.88 136.4 54.88 128.54 62.74 128.54 62.74 120.69 70.59 120.69 70.59 112.83 78.45 112.83 78.45 104.98 86.3 104.98 86.3 97.12 94.16 97.12 94.16 89.27 102.01 89.27 102.01 81.41 109.87 81.41 109.87 73.55 117.72 73.55 117.72 33.13 109.87 33.13 109.87 25.27 102.01 25.27 102.01 17.42 93.97 17.42 93.97 9.38 85.93 9.38 85.93 1.34 24.79 1.34 24.79 41.76 85.89 41.76 85.89 49.8 93.93 49.8 93.93 56.69 86.07 56.69 86.07 64.55 78.22 64.55 78.22 72.41 70.36 72.41 70.36 80.26 62.51 80.26 62.51 88.12 54.65 88.12 54.65 95.97 46.8 95.97 46.8 103.83 38.94 103.83 38.94 111.68 31.08 111.68 31.08 119.54 23.23 119.54 23.23 127.32"/><rect x="22.58" y="198.54" width="31" height="39.46"/><path d="M32.65,1.34H24.8V9.19H16.94v7.86H9.09V24.9H1.23S1.14,65,1.46,65.33H9.32V57.47h7.85V49.62H25V41.76h7.85V33.91"/></svg>