<svg xmlns="http://www.w3.org/2000/svg" width="456.85" height="148.96" viewBox="0 0 456.85 148.96">
  <g id="Layer_3" data-name="Layer 3">
    <g>
      <g>
        <g>
          <polygon points="214.08 147.98 218.66 140.04 209.49 140.04 214.08 147.98"/>
          <polygon points="209.48 140.12 214.06 132.19 204.9 132.19 209.48 140.12"/>
          <polygon points="204.91 132.28 209.5 124.35 200.33 124.35 204.91 132.28"/>
          <polygon points="200.34 124.37 204.93 116.43 195.76 116.43 200.34 124.37"/>
          <polygon points="206.72 132.28 211.31 124.35 202.14 124.35 206.72 132.28"/>
          <polygon points="208.54 132.28 213.12 124.35 203.96 124.35 208.54 132.28"/>
          <polygon points="210.35 132.28 214.93 124.35 205.77 124.35 210.35 132.28"/>
          <polygon points="212.16 132.28 216.74 124.35 207.58 124.35 212.16 132.28"/>
          <polygon points="213.97 132.28 218.56 124.35 209.39 124.35 213.97 132.28"/>
          <polygon points="215.88 147.98 220.46 140.04 211.29 140.04 215.88 147.98"/>
          <polygon points="217.68 147.98 222.26 140.04 213.09 140.04 217.68 147.98"/>
          <polygon points="219.48 147.98 224.06 140.04 214.9 140.04 219.48 147.98"/>
          <polygon points="221.28 147.98 225.86 140.04 216.7 140.04 221.28 147.98"/>
          <polygon points="223.08 147.98 227.66 140.04 218.5 140.04 223.08 147.98"/>
          <polygon points="224.88 147.98 229.46 140.04 220.3 140.04 224.88 147.98"/>
          <polygon points="226.68 147.98 231.26 140.04 222.1 140.04 226.68 147.98"/>
          <polygon points="228.48 147.98 233.06 140.04 223.9 140.04 228.48 147.98"/>
          <polygon points="230.28 147.98 234.86 140.04 225.7 140.04 230.28 147.98"/>
          <polygon points="232.08 147.98 236.66 140.04 227.5 140.04 232.08 147.98"/>
          <polygon points="233.88 147.98 238.46 140.04 229.3 140.04 233.88 147.98"/>
          <polygon points="235.68 147.98 240.26 140.04 231.1 140.04 235.68 147.98"/>
          <polygon points="237.48 147.98 242.06 140.04 232.9 140.04 237.48 147.98"/>
          <polygon points="239.28 147.98 243.87 140.04 234.7 140.04 239.28 147.98"/>
          <polygon points="241.08 147.98 245.67 140.04 236.5 140.04 241.08 147.98"/>
          <polygon points="242.88 147.98 247.47 140.04 238.3 140.04 242.88 147.98"/>
          <polygon points="244.69 147.98 249.27 140.04 240.1 140.04 244.69 147.98"/>
          <polygon points="246.49 147.98 251.07 140.04 241.9 140.04 246.49 147.98"/>
        </g>
        <g>
          <polygon points="221.72 116.41 226.31 108.47 217.14 108.47 221.72 116.41"/>
          <polygon points="223.23 116.41 227.81 108.47 218.64 108.47 223.23 116.41"/>
          <polygon points="224.73 116.41 229.31 108.47 220.15 108.47 224.73 116.41"/>
          <polygon points="226.23 116.41 230.81 108.47 221.65 108.47 226.23 116.41"/>
          <polygon points="227.74 116.41 232.32 108.47 223.15 108.47 227.74 116.41"/>
          <polygon points="229.24 116.41 233.82 108.47 224.66 108.47 229.24 116.41"/>
          <polygon points="230.74 116.41 235.32 108.47 226.16 108.47 230.74 116.41"/>
          <polygon points="232.25 116.41 236.83 108.47 227.66 108.47 232.25 116.41"/>
          <polygon points="233.75 116.41 238.33 108.47 229.17 108.47 233.75 116.41"/>
          <polygon points="235.25 116.41 239.83 108.47 230.67 108.47 235.25 116.41"/>
          <polygon points="217.17 108.47 221.75 100.54 212.58 100.54 217.17 108.47"/>
          <polygon points="220.29 108.47 224.88 100.54 215.71 100.54 220.29 108.47"/>
          <polygon points="218.73 108.47 223.31 100.54 214.15 100.54 218.73 108.47"/>
          <polygon points="212.55 100.55 217.13 92.61 207.97 92.61 212.55 100.55"/>
          <polygon points="214.09 100.55 218.67 92.61 209.51 92.61 214.09 100.55"/>
          <polygon points="215.63 100.55 220.21 92.61 211.04 92.61 215.63 100.55"/>
          <polygon points="217.16 100.55 221.74 92.61 212.58 92.61 217.16 100.55"/>
          <polygon points="218.7 100.55 223.28 92.61 214.12 92.61 218.7 100.55"/>
          <polygon points="220.24 100.55 224.82 92.61 215.65 92.61 220.24 100.55"/>
          <polygon points="221.77 100.55 226.35 92.61 217.19 92.61 221.77 100.55"/>
          <polygon points="224.84 100.55 229.43 92.61 220.26 92.61 224.84 100.55"/>
          <polygon points="223.31 100.55 227.89 92.61 218.73 92.61 223.31 100.55"/>
          <polygon points="231.99 100.55 236.57 92.61 227.41 92.61 231.99 100.55"/>
          <polygon points="233.54 100.55 238.12 92.61 228.96 92.61 233.54 100.55"/>
          <polygon points="235.09 100.55 239.67 92.61 230.51 92.61 235.09 100.55"/>
          <polygon points="236.64 100.55 241.22 92.61 232.06 92.61 236.64 100.55"/>
          <polygon points="238.19 100.55 242.77 92.61 233.61 92.61 238.19 100.55"/>
          <polygon points="239.74 100.55 244.32 92.61 235.16 92.61 239.74 100.55"/>
          <polygon points="248.91 92.61 253.5 84.68 244.33 84.68 248.91 92.61"/>
          <polygon points="239.83 108.47 244.41 100.54 235.25 100.54 239.83 108.47"/>
          <polygon points="236.56 108.47 241.15 100.54 231.98 100.54 236.56 108.47"/>
          <polygon points="238.19 108.47 242.78 100.54 233.61 100.54 238.19 108.47"/>
          <polygon points="244.39 100.55 248.97 92.61 239.81 92.61 244.39 100.55"/>
          <polygon points="242.84 100.55 247.42 92.61 238.26 92.61 242.84 100.55"/>
          <polygon points="241.29 100.55 245.87 92.61 236.71 92.61 241.29 100.55"/>
          <polygon points="230.67 124.35 235.25 116.41 226.09 116.41 230.67 124.35"/>
          <polygon points="227.76 124.35 232.34 116.41 223.18 116.41 227.76 124.35"/>
          <polygon points="229.22 124.35 233.8 116.41 224.63 116.41 229.22 124.35"/>
          <polygon points="226.3 124.35 230.88 116.41 221.72 116.41 226.3 124.35"/>
          <polygon points="230.9 132.28 235.48 124.35 226.32 124.35 230.9 132.28"/>
          <polygon points="232.58 132.28 237.16 124.35 228 124.35 232.58 132.28"/>
          <polygon points="234.27 132.28 238.85 124.35 229.68 124.35 234.27 132.28"/>
          <polygon points="235.95 132.28 240.53 124.35 231.37 124.35 235.95 132.28"/>
          <polygon points="237.63 132.28 242.21 124.35 233.05 124.35 237.63 132.28"/>
          <polygon points="239.31 132.28 243.9 124.35 234.73 124.35 239.31 132.28"/>
          <polygon points="241 132.28 245.58 124.35 236.41 124.35 241 132.28"/>
          <polygon points="242.68 132.28 247.26 124.35 238.09 124.35 242.68 132.28"/>
          <polygon points="244.36 132.28 248.94 124.35 239.78 124.35 244.36 132.28"/>
          <polygon points="246.04 132.28 250.63 124.35 241.46 124.35 246.04 132.28"/>
          <polygon points="247.72 132.28 252.31 124.35 243.14 124.35 247.72 132.28"/>
          <polygon points="249.41 132.28 253.99 124.35 244.82 124.35 249.41 132.28"/>
          <polygon points="251.09 132.28 255.67 124.35 246.51 124.35 251.09 132.28"/>
          <polygon points="252.77 132.28 257.35 124.35 248.19 124.35 252.77 132.28"/>
          <polygon points="254.45 132.28 259.04 124.35 249.87 124.35 254.45 132.28"/>
          <polygon points="259.04 124.29 263.63 116.36 254.46 116.36 259.04 124.29"/>
        </g>
      </g>
      <g>
        <rect x="262.49" y="45.17" width="12.53" height="6.41"/>
        <rect x="255.3" y="52.24" width="10.43" height="6.41"/>
        <rect x="269.58" y="38.16" width="26.84" height="6.41"/>
        <rect x="276.68" y="31.14" width="12.05" height="6.41"/>
        <rect x="290.87" y="45.17" width="10.99" height="6.41"/>
        <rect x="295.45" y="52.12" width="9.27" height="6.41"/>
        <rect x="290.08" y="59" width="8.33" height="6.41"/>
        <rect x="313.93" y="31.22" width="6.41" height="6.41"/>
        <rect x="313.93" y="24.2" width="6.41" height="6.41"/>
        <rect x="313.93" y="17.01" width="6.41" height="6.41"/>
        <rect x="313.93" y="9.81" width="6.41" height="6.41"/>
        <rect x="311.14" y="2.61" width="9.2" height="6.41"/>
        <rect x="304.5" y="38.23" width="15.84" height="6.41"/>
        <rect x="313.93" y="45.18" width="6.41" height="6.41"/>
        <rect x="313.93" y="52.12" width="6.41" height="6.41"/>
        <rect x="313.93" y="59.07" width="6.41" height="6.41"/>
        <rect x="313.93" y="66.01" width="6.41" height="6.41"/>
        <rect x="313.93" y="72.96" width="8.48" height="6.41"/>
        <rect x="283.78" y="24.13" width="9.57" height="6.41"/>
        <rect x="276.71" y="17.2" width="12.23" height="6.41"/>
      </g>
      <g>
        <circle cx="401.77" cy="85.31" r="4.06"/>
        <circle cx="404.57" cy="82.51" r="4.06"/>
        <circle cx="407.37" cy="79.71" r="4.06"/>
        <circle cx="410.17" cy="76.91" r="4.06"/>
        <circle cx="412.97" cy="74.11" r="4.06"/>
        <circle cx="415.76" cy="71.31" r="4.06"/>
        <circle cx="418.17" cy="68.91" r="4.06"/>
        <circle cx="418.17" cy="65.01" r="4.06"/>
        <circle cx="418.17" cy="61.12" r="4.06"/>
        <circle cx="418.17" cy="57.23" r="4.06"/>
        <circle cx="418.17" cy="53.33" r="4.06"/>
        <circle cx="418.17" cy="49.44" r="4.06"/>
        <circle cx="451.25" cy="104.97" r="4.06"/>
        <circle cx="451.25" cy="101.09" r="4.06"/>
        <circle cx="451.25" cy="97.22" r="4.06"/>
        <circle cx="451.25" cy="93.35" r="4.06"/>
        <circle cx="451.25" cy="89.47" r="4.06"/>
        <circle cx="451.25" cy="85.6" r="4.06"/>
        <circle cx="451.25" cy="81.73" r="4.06"/>
        <circle cx="451.25" cy="77.86" r="4.06"/>
        <circle cx="451.25" cy="73.98" r="4.06"/>
        <circle cx="451.25" cy="70.11" r="4.06"/>
        <circle cx="451.25" cy="66.24" r="4.06"/>
        <circle cx="451.25" cy="62.37" r="4.06"/>
        <circle cx="451.25" cy="58.49" r="4.06"/>
        <circle cx="451.25" cy="54.62" r="4.06"/>
        <circle cx="451.25" cy="50.75" r="4.06"/>
        <circle cx="451.25" cy="46.87" r="4.06"/>
        <circle cx="451.25" cy="43" r="4.06"/>
        <circle cx="451.25" cy="39.13" r="4.06"/>
        <circle cx="420.6" cy="71.34" r="4.06"/>
        <circle cx="423.44" cy="74.18" r="4.06"/>
        <circle cx="426.28" cy="77.02" r="4.06"/>
        <circle cx="429.12" cy="79.86" r="4.06"/>
        <circle cx="431.96" cy="82.7" r="4.06"/>
        <circle cx="434.8" cy="85.54" r="4.06"/>
      </g>
      <g>
        <rect x="333.93" y="68.32" width="7.5" height="7.5" transform="translate(47.94 259.88) rotate(-45)"/>
        <rect x="328.56" y="68.32" width="7.5" height="7.5" transform="translate(46.37 256.09) rotate(-45)"/>
        <g>
          <rect x="335.65" y="48.67" width="7.5" height="7.5" transform="translate(62.34 255.34) rotate(-45)"/>
          <rect x="340.95" y="43.37" width="7.5" height="7.5" transform="translate(67.64 257.54) rotate(-45)"/>
          <rect x="340.94" y="53.97" width="7.5" height="7.5" transform="translate(60.15 260.64) rotate(-45)"/>
        </g>
        <g>
          <rect x="362.24" y="48.67" width="7.5" height="7.5" transform="translate(661.84 -169.31) rotate(135)"/>
          <rect x="356.93" y="53.97" width="7.5" height="7.5" transform="translate(656.53 -156.51) rotate(135)"/>
          <rect x="356.94" y="43.37" width="7.5" height="7.5" transform="translate(649.05 -174.61) rotate(135)"/>
        </g>
        <rect x="339.21" y="68.32" width="7.5" height="7.5" transform="translate(49.49 263.61) rotate(-45)"/>
        <rect x="344.49" y="68.32" width="7.5" height="7.5" transform="translate(51.04 267.35) rotate(-45)"/>
        <rect x="349.77" y="68.32" width="7.5" height="7.5" transform="translate(52.59 271.09) rotate(-45)"/>
        <rect x="355.06" y="68.32" width="7.5" height="7.5" transform="translate(54.13 274.82) rotate(-45)"/>
        <rect x="360.34" y="68.32" width="7.5" height="7.5" transform="translate(55.68 278.56) rotate(-45)"/>
        <rect x="365.62" y="68.32" width="7.5" height="7.5" transform="translate(57.23 282.29) rotate(-45)"/>
        <rect x="363.01" y="70.93" width="7.5" height="7.5" transform="translate(54.62 281.21) rotate(-45)"/>
        <rect x="360.4" y="73.54" width="7.5" height="7.5" transform="translate(52.01 280.13) rotate(-45)"/>
        <rect x="357.79" y="76.15" width="7.5" height="7.5" transform="translate(49.4 279.05) rotate(-45)"/>
        <rect x="355.18" y="78.76" width="7.5" height="7.5" transform="translate(46.79 277.97) rotate(-45)"/>
        <rect x="352.57" y="81.37" width="7.5" height="7.5" transform="translate(44.17 276.89) rotate(-45)"/>
        <rect x="349.83" y="84.11" width="7.5" height="7.5" transform="translate(41.44 275.75) rotate(-45)"/>
        <rect x="357.82" y="81.43" width="7.5" height="7.5" transform="translate(45.67 280.62) rotate(-45)"/>
        <rect x="363.14" y="81.43" width="7.5" height="7.5" transform="translate(47.23 284.38) rotate(-45)"/>
        <rect x="368.46" y="81.43" width="7.5" height="7.5" transform="translate(48.78 288.14) rotate(-45)"/>
        <rect x="373.77" y="81.43" width="7.5" height="7.5" transform="translate(50.34 291.9) rotate(-45)"/>
        <rect x="378.93" y="81.43" width="7.5" height="7.5" transform="translate(51.85 295.55) rotate(-45)"/>
        <rect x="376.32" y="84.05" width="7.5" height="7.5" transform="translate(49.23 294.46) rotate(-45)"/>
        <rect x="373.7" y="86.67" width="7.5" height="7.5" transform="translate(46.62 293.38) rotate(-45)"/>
        <rect x="371.08" y="89.29" width="7.5" height="7.5" transform="translate(44 292.29) rotate(-45)"/>
        <rect x="368.46" y="91.91" width="7.5" height="7.5" transform="translate(41.38 291.21) rotate(-45)"/>
        <rect x="365.84" y="94.53" width="7.5" height="7.5" transform="translate(38.76 290.12) rotate(-45)"/>
        <rect x="363.22" y="97.14" width="7.5" height="7.5" transform="translate(36.14 289.04) rotate(-45)"/>
        <rect x="371.09" y="94.47" width="7.5" height="7.5" transform="translate(40.34 293.82) rotate(-45)"/>
        <rect x="376.27" y="94.47" width="7.5" height="7.5" transform="translate(41.86 297.48) rotate(-45)"/>
        <rect x="381.46" y="94.47" width="7.5" height="7.5" transform="translate(43.38 301.15) rotate(-45)"/>
        <rect x="386.65" y="94.47" width="7.5" height="7.5" transform="translate(44.9 304.82) rotate(-45)"/>
        <rect x="391.84" y="94.47" width="7.5" height="7.5" transform="translate(46.41 308.49) rotate(-45)"/>
        <rect x="389.23" y="97.08" width="7.5" height="7.5" transform="translate(43.81 307.41) rotate(-45)"/>
        <rect x="386.62" y="99.68" width="7.5" height="7.5" transform="translate(41.2 306.33) rotate(-45)"/>
        <rect x="384.01" y="102.29" width="7.5" height="7.5" transform="translate(38.59 305.25) rotate(-45)"/>
        <rect x="381.41" y="104.9" width="7.5" height="7.5" transform="translate(35.98 304.17) rotate(-45)"/>
        <rect x="378.8" y="107.51" width="7.5" height="7.5" transform="translate(33.38 303.09) rotate(-45)"/>
        <rect x="376.1" y="110.2" width="7.5" height="7.5" transform="translate(30.68 301.97) rotate(-45)"/>
      </g>
      <g>
        <g>
          <polygon points="178.65 78.36 174.13 78.36 174.13 81.06 171.41 81.06 171.41 83.75 168.7 83.75 168.7 97.69 171.51 97.69 171.51 95 174.22 95 174.22 92.31 178.65 92.31 178.65 78.36"/>
          <polygon points="171.43 60.46 171.43 54.97 171.43 46.52 171.43 41.02 168.66 41.02 168.66 38.28 165.89 38.28 165.89 35.53 159.87 35.53 159.87 49.47 165.85 49.47 165.85 52.22 168.62 52.22 168.62 54.55 165.88 54.55 165.88 112.96 168.7 112.96 168.7 60.46 171.43 60.46"/>
          <rect x="168.68" y="83.7" width="2.81" height="13.94"/>
        </g>
        <polygon points="119.53 103.21 122.79 103.21 122.79 100.5 125.52 100.5 125.52 97.8 128.25 97.8 128.25 95.09 130.98 95.09 130.98 92.38 133.72 92.38 133.72 89.67 136.45 89.67 136.45 86.96 139.18 86.96 139.18 84.25 141.85 84.25 141.85 81.54 144.65 81.54 144.65 78.83 147.46 78.83 147.46 76.12 150.19 76.12 150.19 73.42 152.92 73.42 152.92 59.47 150.19 59.47 150.19 56.77 147.46 56.77 147.46 54.06 144.65 54.06 144.65 51.28 141.85 51.28 141.85 48.51 122.76 48.51 122.76 62.45 141.85 62.45 141.85 65.22 144.65 65.22 144.65 67.6 141.85 67.6 141.85 70.31 139.18 70.31 139.18 73.02 136.45 73.02 136.45 75.73 133.72 75.73 133.72 78.44 130.98 78.44 130.98 81.15 128.25 81.15 128.25 83.86 125.52 83.86 125.52 86.56 122.79 86.56 122.79 89.27 119.53 89.27 119.53 103.21"/>
      </g>
      <g>
        <g>
          <ellipse cx="110.77" cy="6.84" rx="5.32" ry="2.9" transform="translate(27.61 80.33) rotate(-45)"/>
          <ellipse cx="110.77" cy="10.18" rx="5.32" ry="2.9" transform="translate(25.24 81.31) rotate(-45)"/>
          <ellipse cx="110.77" cy="13.53" rx="5.32" ry="2.9" transform="translate(22.88 82.29) rotate(-45)"/>
          <ellipse cx="110.77" cy="16.87" rx="5.32" ry="2.9" transform="translate(20.51 83.27) rotate(-45)"/>
          <ellipse cx="110.77" cy="20.21" rx="5.32" ry="2.9" transform="translate(18.15 84.25) rotate(-45)"/>
          <ellipse cx="110.77" cy="23.56" rx="5.32" ry="2.9" transform="translate(15.79 85.22) rotate(-45)"/>
          <ellipse cx="110.77" cy="26.9" rx="5.32" ry="2.9" transform="translate(13.42 86.2) rotate(-45)"/>
          <ellipse cx="110.77" cy="30.24" rx="5.32" ry="2.9" transform="translate(11.06 87.18) rotate(-45)"/>
          <ellipse cx="110.77" cy="33.59" rx="5.32" ry="2.9" transform="translate(8.69 88.16) rotate(-45)"/>
          <ellipse cx="110.77" cy="36.93" rx="5.32" ry="2.9" transform="translate(6.33 89.14) rotate(-45)"/>
          <ellipse cx="110.77" cy="40.28" rx="5.32" ry="2.9" transform="translate(3.96 90.12) rotate(-45)"/>
          <ellipse cx="110.77" cy="43.62" rx="5.32" ry="2.9" transform="translate(1.6 91.1) rotate(-45)"/>
          <ellipse cx="110.77" cy="46.96" rx="5.32" ry="2.9" transform="translate(-0.76 92.08) rotate(-45)"/>
          <ellipse cx="110.77" cy="50.31" rx="5.32" ry="2.9" transform="translate(-3.13 93.06) rotate(-45)"/>
          <ellipse cx="110.77" cy="53.65" rx="5.32" ry="2.9" transform="translate(-5.49 94.04) rotate(-45)"/>
          <ellipse cx="110.77" cy="56.99" rx="5.32" ry="2.9" transform="translate(-7.86 95.02) rotate(-45)"/>
          <ellipse cx="110.77" cy="60.34" rx="5.32" ry="2.9" transform="translate(-10.22 96) rotate(-45)"/>
          <ellipse cx="110.77" cy="63.68" rx="5.32" ry="2.9" transform="translate(-12.59 96.98) rotate(-45)"/>
          <ellipse cx="110.77" cy="67.25" rx="5.32" ry="2.9" transform="translate(-15.11 98.02) rotate(-45)"/>
          <ellipse cx="110.77" cy="70.6" rx="5.32" ry="2.9" transform="translate(-17.48 99) rotate(-45)"/>
          <ellipse cx="110.77" cy="74.23" rx="5.32" ry="2.9" transform="translate(-20.05 100.07) rotate(-45)"/>
        </g>
        <g>
          <ellipse cx="79.07" cy="21.28" rx="5.32" ry="2.9" transform="translate(8.11 62.14) rotate(-45)"/>
          <ellipse cx="82.85" cy="17.5" rx="5.32" ry="2.9" transform="translate(11.89 63.71) rotate(-45)"/>
          <ellipse cx="79.26" cy="17.5" rx="5.32" ry="2.9" transform="translate(10.84 61.17) rotate(-45)"/>
          <ellipse cx="75.67" cy="17.5" rx="5.32" ry="2.9" transform="translate(9.79 58.63) rotate(-45)"/>
          <ellipse cx="72.09" cy="17.5" rx="5.32" ry="2.9" transform="translate(8.74 56.1) rotate(-45)"/>
          <ellipse cx="68.5" cy="17.5" rx="5.32" ry="2.9" transform="translate(7.69 53.56) rotate(-45)"/>
          <ellipse cx="64.91" cy="17.5" rx="5.32" ry="2.9" transform="translate(6.64 51.02) rotate(-45)"/>
          <ellipse cx="75.39" cy="24.96" rx="5.32" ry="2.9" transform="translate(4.43 60.62) rotate(-45)"/>
          <ellipse cx="71.7" cy="28.64" rx="5.32" ry="2.9" transform="translate(0.75 59.09) rotate(-45)"/>
          <ellipse cx="68.19" cy="33.16" rx="5.32" ry="2.9" transform="translate(-3.48 57.93) rotate(-45)"/>
          <ellipse cx="64.6" cy="33.16" rx="5.32" ry="2.9" transform="translate(-4.53 55.39) rotate(-45)"/>
          <ellipse cx="71.68" cy="33.16" rx="5.32" ry="2.9" transform="translate(-2.46 60.4) rotate(-45)"/>
          <ellipse cx="75.17" cy="33.16" rx="5.32" ry="2.9" transform="translate(-1.43 62.86) rotate(-45)"/>
          <ellipse cx="78.66" cy="33.16" rx="5.32" ry="2.9" transform="translate(-0.41 65.33) rotate(-45)"/>
          <ellipse cx="82.15" cy="33.16" rx="5.32" ry="2.9" transform="translate(0.61 67.8) rotate(-45)"/>
          <ellipse cx="85.63" cy="33.16" rx="5.32" ry="2.9" transform="translate(1.63 70.27) rotate(-45)"/>
          <ellipse cx="89.12" cy="33.16" rx="5.32" ry="2.9" transform="translate(2.65 72.73) rotate(-45)"/>
          <ellipse cx="85.44" cy="36.85" rx="5.32" ry="2.9" transform="translate(-1.03 71.21) rotate(-45)"/>
          <ellipse cx="81.76" cy="40.53" rx="5.32" ry="2.9" transform="translate(-4.71 69.68) rotate(-45)"/>
          <ellipse cx="78.08" cy="44.21" rx="5.32" ry="2.9" transform="translate(-8.39 68.16) rotate(-45)"/>
          <ellipse cx="74.35" cy="47.94" rx="5.32" ry="2.9" transform="translate(-12.12 66.61) rotate(-45)"/>
          <ellipse cx="70.6" cy="51.69" rx="5.32" ry="2.9" transform="translate(-15.87 65.06) rotate(-45)"/>
          <ellipse cx="65.94" cy="55.44" rx="5.32" ry="2.9" transform="translate(-19.89 62.86) rotate(-45)"/>
          <ellipse cx="69.42" cy="55.44" rx="5.32" ry="2.9" transform="translate(-18.87 65.32) rotate(-45)"/>
          <ellipse cx="72.89" cy="55.44" rx="5.32" ry="2.9" transform="translate(-17.85 67.78) rotate(-45)"/>
          <ellipse cx="76.37" cy="55.44" rx="5.32" ry="2.9" transform="translate(-16.83 70.24) rotate(-45)"/>
          <ellipse cx="79.85" cy="55.44" rx="5.32" ry="2.9" transform="translate(-15.81 72.7) rotate(-45)"/>
          <ellipse cx="83.32" cy="55.44" rx="5.32" ry="2.9" transform="translate(-14.79 75.16) rotate(-45)"/>
          <ellipse cx="86.8" cy="55.44" rx="5.32" ry="2.9" transform="translate(-13.78 77.61) rotate(-45)"/>
          <ellipse cx="90.28" cy="55.44" rx="5.32" ry="2.9" transform="translate(-12.76 80.07) rotate(-45)"/>
          <ellipse cx="93.76" cy="55.44" rx="5.32" ry="2.9" transform="translate(-11.74 82.53) rotate(-45)"/>
          <ellipse cx="97.42" cy="55.44" rx="5.32" ry="2.9" transform="translate(-10.67 85.12) rotate(-45)"/>
        </g>
      </g>
      <g>
        <g>
          <rect x="9.85" y="42.83" width="4.59" height="9"/>
          <rect x="9.85" y="51.83" width="4.59" height="9"/>
          <rect x="5.27" y="47.41" width="4.59" height="9"/>
          <rect x="37.85" y="51.77" width="4.59" height="9"/>
          <rect x="28.69" y="60.76" width="4.59" height="4.58"/>
          <rect x="14.46" y="60.76" width="9.65" height="4.58"/>
          <rect x="24.11" y="42.88" width="9.17" height="4.58"/>
          <rect x="14.46" y="42.83" width="4.59" height="4.58"/>
          <rect x="24.1" y="38.29" width="4.59" height="4.58"/>
          <rect x="33.27" y="56.35" width="4.59" height="9"/>
          <rect x="33.27" y="47.36" width="4.59" height="9"/>
        </g>
        <g>
          <rect x="19.74" y="71.48" width="4.59" height="9" transform="translate(-47.27 37.83) rotate(-45)"/>
          <rect x="13.29" y="71.48" width="4.59" height="9" transform="translate(-49.16 33.27) rotate(-45)"/>
          <rect x="6.85" y="71.48" width="4.59" height="9" transform="translate(-51.05 28.72) rotate(-45)"/>
          <rect x="1.98" y="75.4" width="4.59" height="4.41" transform="translate(-53.62 25.75) rotate(-45)"/>
          <rect x="26.17" y="71.48" width="4.59" height="9" transform="translate(-45.39 42.38) rotate(-45)"/>
          <rect x="32.6" y="71.48" width="4.59" height="9" transform="translate(-43.5 46.92) rotate(-45)"/>
          <rect x="39.03" y="71.48" width="4.59" height="9" transform="translate(-41.62 51.47) rotate(-45)"/>
          <rect x="45.46" y="71.48" width="4.59" height="9" transform="translate(-39.74 56.02) rotate(-45)"/>
          <rect x="51.88" y="71.48" width="4.59" height="9" transform="translate(-37.85 60.56) rotate(-45)"/>
          <rect x="58.04" y="71.48" width="4.59" height="9" transform="translate(-36.05 64.92) rotate(-45)"/>
          <rect x="54.85" y="74.67" width="4.59" height="9" transform="translate(-39.25 63.59) rotate(-45)"/>
          <rect x="51.65" y="77.87" width="4.59" height="9" transform="translate(-42.44 62.27) rotate(-45)"/>
          <rect x="48.45" y="81.07" width="4.59" height="9" transform="translate(-45.64 60.95) rotate(-45)"/>
          <rect x="45.26" y="84.26" width="4.59" height="9" transform="translate(-48.83 59.62) rotate(-45)"/>
          <rect x="42.06" y="87.46" width="4.59" height="9" transform="translate(-52.03 58.3) rotate(-45)"/>
          <rect x="38.87" y="90.65" width="4.59" height="9" transform="translate(-55.22 56.98) rotate(-45)"/>
          <rect x="35.67" y="93.85" width="4.59" height="9" transform="translate(-58.42 55.65) rotate(-45)"/>
          <rect x="32.5" y="97.02" width="4.59" height="9" transform="translate(-61.6 54.34) rotate(-45)"/>
          <rect x="31.03" y="99.53" width="2.51" height="9" transform="translate(-64.11 53.3) rotate(-45)"/>
        </g>
      </g>
    </g>
  </g>
</svg>
