<svg id="Layer_1" data-name="Layer 1" xmlns="http://www.w3.org/2000/svg" viewBox="0 0 542.43 172.74"><polygon points="234.66 168.97 240.09 159.56 229.22 159.56 234.66 168.97"/><polygon points="229.21 159.66 234.64 150.25 223.78 150.25 229.21 159.66"/><polygon points="223.79 150.36 229.22 140.95 218.36 140.95 223.79 150.36"/><polygon points="218.38 140.98 223.81 131.57 212.94 131.57 218.38 140.98"/><polygon points="225.94 150.36 231.37 140.95 220.51 140.95 225.94 150.36"/><polygon points="228.09 150.36 233.52 140.95 222.66 140.95 228.09 150.36"/><polygon points="230.24 150.36 235.67 140.95 224.8 140.95 230.24 150.36"/><polygon points="232.39 150.36 237.82 140.95 226.95 140.95 232.39 150.36"/><polygon points="234.53 150.36 239.97 140.95 229.1 140.95 234.53 150.36"/><polygon points="236.79 168.97 242.22 159.56 231.36 159.56 236.79 168.97"/><polygon points="238.93 168.97 244.36 159.56 233.49 159.56 238.93 168.97"/><polygon points="241.06 168.97 246.5 159.56 235.63 159.56 241.06 168.97"/><polygon points="243.2 168.97 248.63 159.56 237.76 159.56 243.2 168.97"/><polygon points="245.33 168.97 250.76 159.56 239.9 159.56 245.33 168.97"/><polygon points="247.47 168.97 252.9 159.56 242.03 159.56 247.47 168.97"/><polygon points="249.6 168.97 255.03 159.56 244.17 159.56 249.6 168.97"/><polygon points="251.74 168.97 257.17 159.56 246.3 159.56 251.74 168.97"/><polygon points="253.87 168.97 259.3 159.56 248.44 159.56 253.87 168.97"/><polygon points="256.01 168.97 261.44 159.56 250.57 159.56 256.01 168.97"/><polygon points="258.14 168.97 263.57 159.56 252.71 159.56 258.14 168.97"/><polygon points="260.27 168.97 265.71 159.56 254.84 159.56 260.27 168.97"/><polygon points="262.41 168.97 267.84 159.56 256.98 159.56 262.41 168.97"/><polygon points="264.55 168.97 269.98 159.56 259.11 159.56 264.55 168.97"/><polygon points="266.68 168.97 272.11 159.56 261.25 159.56 266.68 168.97"/><polygon points="268.81 168.97 274.25 159.56 263.38 159.56 268.81 168.97"/><polygon points="270.95 168.97 276.38 159.56 265.52 159.56 270.95 168.97"/><polygon points="273.08 168.97 278.52 159.56 267.65 159.56 273.08 168.97"/><polygon points="243.72 131.54 249.16 122.13 238.29 122.13 243.72 131.54"/><polygon points="245.51 131.54 250.94 122.13 240.07 122.13 245.51 131.54"/><polygon points="247.29 131.54 252.72 122.13 241.85 122.13 247.29 131.54"/><polygon points="249.07 131.54 254.5 122.13 243.64 122.13 249.07 131.54"/><polygon points="250.85 131.54 256.29 122.13 245.42 122.13 250.85 131.54"/><polygon points="252.63 131.54 258.07 122.13 247.2 122.13 252.63 131.54"/><polygon points="254.42 131.54 259.85 122.13 248.98 122.13 254.42 131.54"/><polygon points="256.2 131.54 261.63 122.13 250.77 122.13 256.2 131.54"/><polygon points="257.98 131.54 263.42 122.13 252.55 122.13 257.98 131.54"/><polygon points="259.76 131.54 265.2 122.13 254.33 122.13 259.76 131.54"/><polygon points="238.32 122.13 243.75 112.72 232.89 112.72 238.32 122.13"/><polygon points="242.03 122.13 247.46 112.72 236.59 112.72 242.03 122.13"/><polygon points="240.17 122.13 245.61 112.72 234.74 112.72 240.17 122.13"/><polygon points="232.85 112.73 238.28 103.32 227.42 103.32 232.85 112.73"/><polygon points="234.67 112.73 240.1 103.32 229.24 103.32 234.67 112.73"/><polygon points="236.49 112.73 241.93 103.32 231.06 103.32 236.49 112.73"/><polygon points="238.31 112.73 243.75 103.32 232.88 103.32 238.31 112.73"/><polygon points="240.14 112.73 245.57 103.32 234.7 103.32 240.14 112.73"/><polygon points="241.96 112.73 247.39 103.32 236.53 103.32 241.96 112.73"/><polygon points="243.78 112.73 249.22 103.32 238.35 103.32 243.78 112.73"/><polygon points="247.43 112.73 252.86 103.32 241.99 103.32 247.43 112.73"/><polygon points="245.6 112.73 251.04 103.32 240.17 103.32 245.6 112.73"/><polygon points="255.9 112.73 261.33 103.32 250.47 103.32 255.9 112.73"/><polygon points="257.74 112.73 263.17 103.32 252.3 103.32 257.74 112.73"/><polygon points="259.57 112.73 265.01 103.32 254.14 103.32 259.57 112.73"/><polygon points="261.41 112.73 266.85 103.32 255.98 103.32 261.41 112.73"/><polygon points="263.25 112.73 268.68 103.32 257.82 103.32 263.25 112.73"/><polygon points="265.09 112.73 270.52 103.32 259.65 103.32 265.09 112.73"/><polygon points="275.97 103.32 281.4 93.91 270.53 93.91 275.97 103.32"/><polygon points="265.19 122.13 270.62 112.72 259.76 112.72 265.19 122.13"/><polygon points="261.32 122.13 266.75 112.72 255.89 112.72 261.32 122.13"/><polygon points="263.25 122.13 268.69 112.72 257.82 112.72 263.25 122.13"/><polygon points="270.6 112.73 276.03 103.32 265.17 103.32 270.6 112.73"/><polygon points="268.76 112.73 274.19 103.32 263.33 103.32 268.76 112.73"/><polygon points="266.92 112.73 272.36 103.32 261.49 103.32 266.92 112.73"/><polygon points="254.34 140.95 259.77 131.54 248.9 131.54 254.34 140.95"/><polygon points="250.88 140.95 256.31 131.54 245.45 131.54 250.88 140.95"/><polygon points="252.61 140.95 258.04 131.54 247.18 131.54 252.61 140.95"/><polygon points="249.15 140.95 254.59 131.54 243.72 131.54 249.15 140.95"/><polygon points="254.61 150.36 260.04 140.95 249.17 140.95 254.61 150.36"/><polygon points="256.6 150.36 262.03 140.95 251.17 140.95 256.6 150.36"/><polygon points="258.6 150.36 264.03 140.95 253.16 140.95 258.6 150.36"/><polygon points="260.59 150.36 266.02 140.95 255.16 140.95 260.59 150.36"/><polygon points="262.58 150.36 268.02 140.95 257.15 140.95 262.58 150.36"/><polygon points="264.58 150.36 270.01 140.95 259.15 140.95 264.58 150.36"/><polygon points="266.57 150.36 272.01 140.95 261.14 140.95 266.57 150.36"/><polygon points="268.57 150.36 274 140.95 263.14 140.95 268.57 150.36"/><polygon points="270.56 150.36 276 140.95 265.13 140.95 270.56 150.36"/><polygon points="272.56 150.36 277.99 140.95 267.13 140.95 272.56 150.36"/><polygon points="274.55 150.36 279.99 140.95 269.12 140.95 274.55 150.36"/><polygon points="276.55 150.36 281.98 140.95 271.12 140.95 276.55 150.36"/><polygon points="278.54 150.36 283.98 140.95 273.11 140.95 278.54 150.36"/><polygon points="280.54 150.36 285.97 140.95 275.11 140.95 280.54 150.36"/><polygon points="282.53 150.36 287.97 140.95 277.1 140.95 282.53 150.36"/><polygon points="287.98 140.88 293.41 131.47 282.54 131.47 287.98 140.88"/><rect x="302.46" y="72.37" width="15.39" height="7.87"/><rect x="293.63" y="81.05" width="12.8" height="7.87"/><rect x="311.17" y="63.76" width="32.96" height="7.87"/><rect x="319.88" y="55.15" width="14.8" height="7.87"/><rect x="337.3" y="72.37" width="13.5" height="7.87"/><rect x="342.92" y="80.91" width="11.39" height="7.87"/><rect x="336.33" y="89.36" width="10.23" height="7.87"/><rect x="366.56" y="55.25" width="7.87" height="7.87"/><rect x="366.56" y="46.64" width="7.87" height="7.87"/><rect x="366.56" y="37.8" width="7.87" height="7.87"/><rect x="366.56" y="28.96" width="7.87" height="7.87"/><rect x="363.14" y="20.13" width="11.29" height="7.87"/><rect x="354.99" y="63.86" width="19.44" height="7.87"/><rect x="366.56" y="72.38" width="7.87" height="7.87"/><rect x="366.56" y="80.91" width="7.87" height="7.87"/><rect x="366.56" y="89.44" width="7.87" height="7.87"/><rect x="366.56" y="97.96" width="7.87" height="7.87"/><rect x="366.56" y="106.49" width="10.41" height="7.87"/><rect x="328.59" y="46.54" width="11.75" height="7.87"/><rect x="319.92" y="38.04" width="15.01" height="7.87"/><rect x="528.42" y="80.65" width="7.87" height="7.87"/><rect x="528.42" y="72.04" width="7.87" height="7.87"/><rect x="528.42" y="63.21" width="7.87" height="7.87"/><rect x="528.42" y="54.37" width="7.87" height="7.87"/><rect x="524.99" y="45.53" width="11.29" height="7.87"/><rect x="528.42" y="89.26" width="7.87" height="7.87"/><rect x="528.42" y="97.79" width="7.87" height="7.87"/><rect x="528.42" y="106.32" width="7.87" height="7.87"/><rect x="528.42" y="114.84" width="7.87" height="7.87"/><rect x="528.42" y="123.37" width="7.87" height="7.87"/><rect x="528.42" y="131.9" width="10.41" height="7.87"/><rect x="467.35" y="97.78" width="15.39" height="7.87"/><rect x="458.53" y="106.46" width="12.8" height="7.87"/><rect x="476.06" y="89.17" width="32.96" height="7.87"/><rect x="484.77" y="80.56" width="14.8" height="7.87"/><rect x="502.2" y="97.78" width="13.5" height="7.87"/><rect x="507.82" y="106.32" width="11.39" height="7.87"/><rect x="501.22" y="114.77" width="10.23" height="7.87"/><rect x="493.49" y="71.95" width="11.75" height="7.87"/><rect x="484.81" y="63.44" width="15.01" height="7.87"/><rect x="389.64" y="109.31" width="9.15" height="9.15" transform="translate(34.93 312.11) rotate(-45)"/><rect x="383.1" y="109.31" width="9.15" height="9.15" transform="translate(33.02 307.48) rotate(-45)"/><rect x="391.75" y="85.34" width="9.15" height="9.15" transform="translate(52.5 306.58) rotate(-45)"/><rect x="398.22" y="78.87" width="9.15" height="9.15" transform="translate(58.97 309.26) rotate(-45)"/><rect x="398.21" y="91.81" width="9.15" height="9.15" transform="translate(49.82 313.04) rotate(-45)"/><rect x="424.19" y="85.34" width="9.15" height="9.15" transform="translate(795.51 -149.69) rotate(135)"/><rect x="417.72" y="91.81" width="9.15" height="9.15" transform="translate(789.04 -134.07) rotate(135)"/><rect x="417.72" y="78.87" width="9.15" height="9.15" transform="translate(779.92 -156.15) rotate(135)"/><rect x="396.09" y="109.31" width="9.15" height="9.15" transform="translate(36.82 316.67) rotate(-45)"/><rect x="402.54" y="109.31" width="9.15" height="9.15" transform="translate(38.71 321.23) rotate(-45)"/><rect x="408.98" y="109.31" width="9.15" height="9.15" transform="translate(40.6 325.78) rotate(-45)"/><rect x="415.43" y="109.31" width="9.15" height="9.15" transform="translate(42.49 330.34) rotate(-45)"/><rect x="421.87" y="109.31" width="9.15" height="9.15" transform="translate(44.37 334.9) rotate(-45)"/><rect x="428.32" y="109.31" width="9.15" height="9.15" transform="translate(46.26 339.46) rotate(-45)"/><rect x="425.13" y="112.5" width="9.15" height="9.15" transform="translate(43.08 338.14) rotate(-45)"/><rect x="421.95" y="115.68" width="9.15" height="9.15" transform="translate(39.89 336.82) rotate(-45)"/><rect x="418.76" y="118.87" width="9.15" height="9.15" transform="translate(36.71 335.5) rotate(-45)"/><rect x="415.58" y="122.05" width="9.15" height="9.15" transform="translate(33.52 334.18) rotate(-45)"/><rect x="412.39" y="125.24" width="9.15" height="9.15" transform="translate(30.33 332.86) rotate(-45)"/><rect x="409.05" y="128.58" width="9.15" height="9.15" transform="translate(27 331.48) rotate(-45)"/><rect x="418.8" y="125.31" width="9.15" height="9.15" transform="translate(32.16 337.41) rotate(-45)"/><rect x="425.29" y="125.31" width="9.15" height="9.15" transform="translate(34.06 342) rotate(-45)"/><rect x="431.77" y="125.31" width="9.15" height="9.15" transform="translate(35.96 346.59) rotate(-45)"/><rect x="438.26" y="125.31" width="9.15" height="9.15" transform="translate(37.86 351.17) rotate(-45)"/><rect x="444.56" y="125.31" width="9.15" height="9.15" transform="translate(39.7 355.63) rotate(-45)"/><rect x="441.36" y="128.51" width="9.15" height="9.15" transform="translate(36.51 354.3) rotate(-45)"/><rect x="438.17" y="131.7" width="9.15" height="9.15" transform="translate(33.31 352.98) rotate(-45)"/><rect x="434.97" y="134.9" width="9.15" height="9.15" transform="translate(30.12 351.66) rotate(-45)"/><rect x="431.78" y="138.09" width="9.15" height="9.15" transform="translate(26.92 350.33) rotate(-45)"/><rect x="428.59" y="141.29" width="9.15" height="9.15" transform="translate(23.73 349.01) rotate(-45)"/><rect x="425.39" y="144.48" width="9.15" height="9.15" transform="translate(20.54 347.69) rotate(-45)"/><rect x="434.98" y="141.22" width="9.15" height="9.15" transform="translate(25.65 353.52) rotate(-45)"/><rect x="441.31" y="141.22" width="9.15" height="9.15" transform="translate(27.51 357.99) rotate(-45)"/><rect x="447.64" y="141.22" width="9.15" height="9.15" transform="translate(29.36 362.47) rotate(-45)"/><rect x="453.97" y="141.22" width="9.15" height="9.15" transform="translate(31.21 366.94) rotate(-45)"/><rect x="460.3" y="141.22" width="9.15" height="9.15" transform="translate(33.07 371.42) rotate(-45)"/><rect x="457.12" y="144.4" width="9.15" height="9.15" transform="translate(29.89 370.1) rotate(-45)"/><rect x="453.94" y="147.58" width="9.15" height="9.15" transform="translate(26.71 368.78) rotate(-45)"/><rect x="450.76" y="150.76" width="9.15" height="9.15" transform="translate(23.52 367.46) rotate(-45)"/><rect x="447.58" y="153.94" width="9.15" height="9.15" transform="translate(20.34 366.15) rotate(-45)"/><rect x="444.39" y="157.13" width="9.15" height="9.15" transform="translate(17.16 364.83) rotate(-45)"/><rect x="441.1" y="160.42" width="9.15" height="9.15" transform="translate(13.87 363.46) rotate(-45)"/><polygon points="214 91.23 208.5 91.23 208.5 94.52 205.21 94.52 205.21 97.82 201.91 97.82 201.91 114.9 205.33 114.9 205.33 111.6 208.62 111.6 208.62 108.3 214 108.3 214 91.23"/><polygon points="205.23 69.3 205.23 62.56 205.23 52.22 205.23 45.49 201.86 45.49 201.86 42.12 198.5 42.12 198.5 38.76 191.19 38.76 191.19 55.83 198.45 55.83 198.45 59.2 201.81 59.2 201.81 62.06 198.49 62.06 198.49 133.6 201.91 133.6 201.91 69.3 205.23 69.3"/><rect x="201.89" y="97.76" width="3.41" height="17.07"/><polyline points="142.85 122.7 146.26 122.7 146.26 119.38 149.58 119.38 149.58 116.06 152.9 116.06 152.9 112.74 156.22 112.74 156.22 109.42 159.53 109.42 159.53 106.11 162.85 106.11 162.85 102.79 166.17 102.79 166.17 99.47 169.49 99.47 169.49 96.15 172.81 96.15 172.81 92.83 176.13 92.83 176.13 89.52 179.44 89.52 179.44 86.2 182.76 86.2 182.76 69.12 179.44 69.12 179.44 65.8 176.13 65.8 176.13 62.49 172.73 62.49 172.73 59.09 169.33 59.09 169.33 55.69 152.27 55.69 152.27 72.77 169.31 72.77 169.31 76.17 172.71 76.17 172.71 79.08 169.39 79.08 169.39 82.39 166.07 82.39 166.07 85.71 162.75 85.71 162.75 89.03 159.44 89.03 159.44 92.35 156.12 92.35 156.12 95.67 152.8 95.67 152.8 98.99 149.48 98.99 149.48 102.3 146.16 102.3 146.16 105.62 142.85 105.62 142.85 108.91"/><ellipse cx="130.97" cy="7.45" rx="6.67" ry="3.63" transform="translate(33.09 94.8) rotate(-45)"/><ellipse cx="130.97" cy="11.64" rx="6.67" ry="3.63" transform="translate(30.13 96.02) rotate(-45)"/><ellipse cx="130.97" cy="15.83" rx="6.67" ry="3.63" transform="translate(27.17 97.25) rotate(-45)"/><ellipse cx="130.97" cy="20.02" rx="6.67" ry="3.63" transform="translate(24.2 98.48) rotate(-45)"/><ellipse cx="130.97" cy="24.22" rx="6.67" ry="3.63" transform="translate(21.24 99.71) rotate(-45)"/><ellipse cx="130.97" cy="28.41" rx="6.67" ry="3.63" transform="translate(18.28 100.93) rotate(-45)"/><ellipse cx="130.97" cy="32.6" rx="6.67" ry="3.63" transform="translate(15.31 102.16) rotate(-45)"/><ellipse cx="130.97" cy="36.79" rx="6.67" ry="3.63" transform="translate(12.35 103.39) rotate(-45)"/><ellipse cx="130.97" cy="40.98" rx="6.67" ry="3.63" transform="translate(9.39 104.62) rotate(-45)"/><ellipse cx="130.97" cy="45.17" rx="6.67" ry="3.63" transform="translate(6.42 105.84) rotate(-45)"/><ellipse cx="130.97" cy="49.36" rx="6.67" ry="3.63" transform="translate(3.46 107.07) rotate(-45)"/><ellipse cx="130.97" cy="53.55" rx="6.67" ry="3.63" transform="translate(0.5 108.3) rotate(-45)"/><ellipse cx="130.97" cy="57.74" rx="6.67" ry="3.63" transform="translate(-2.47 109.53) rotate(-45)"/><ellipse cx="130.97" cy="61.93" rx="6.67" ry="3.63" transform="translate(-5.43 110.75) rotate(-45)"/><ellipse cx="130.97" cy="66.12" rx="6.67" ry="3.63" transform="translate(-8.39 111.98) rotate(-45)"/><ellipse cx="130.97" cy="70.31" rx="6.67" ry="3.63" transform="translate(-11.36 113.21) rotate(-45)"/><ellipse cx="130.97" cy="74.51" rx="6.67" ry="3.63" transform="translate(-14.32 114.43) rotate(-45)"/><ellipse cx="130.97" cy="78.7" rx="6.67" ry="3.63" transform="translate(-17.29 115.66) rotate(-45)"/><ellipse cx="130.97" cy="83.17" rx="6.67" ry="3.63" transform="translate(-20.45 116.97) rotate(-45)"/><ellipse cx="130.97" cy="87.37" rx="6.67" ry="3.63" transform="translate(-23.42 118.2) rotate(-45)"/><ellipse cx="97.19" cy="23.46" rx="6.67" ry="3.63" transform="translate(11.87 75.6) rotate(-45)"/><ellipse cx="101.93" cy="18.73" rx="6.67" ry="3.63" transform="translate(16.61 77.56) rotate(-45)"/><ellipse cx="97.43" cy="18.73" rx="6.67" ry="3.63" transform="translate(15.29 74.38) rotate(-45)"/><ellipse cx="92.93" cy="18.73" rx="6.67" ry="3.63" transform="translate(13.98 71.2) rotate(-45)"/><ellipse cx="88.44" cy="18.73" rx="6.67" ry="3.63" transform="translate(12.66 68.02) rotate(-45)"/><ellipse cx="83.94" cy="18.73" rx="6.67" ry="3.63" transform="translate(11.34 64.84) rotate(-45)"/><ellipse cx="79.44" cy="18.73" rx="6.67" ry="3.63" transform="translate(10.03 61.66) rotate(-45)"/><ellipse cx="92.57" cy="28.08" rx="6.67" ry="3.63" transform="translate(7.26 73.68) rotate(-45)"/><ellipse cx="87.96" cy="32.7" rx="6.67" ry="3.63" transform="translate(2.64 71.77) rotate(-45)"/><ellipse cx="83" cy="37.31" rx="6.67" ry="3.63" transform="translate(-2.07 69.62) rotate(-45)"/><ellipse cx="78.5" cy="37.31" rx="6.67" ry="3.63" transform="translate(-3.39 66.44) rotate(-45)"/><ellipse cx="87.37" cy="37.31" rx="6.67" ry="3.63" transform="translate(-0.79 72.71) rotate(-45)"/><ellipse cx="91.75" cy="37.31" rx="6.67" ry="3.63" transform="translate(0.49 75.8) rotate(-45)"/><ellipse cx="96.12" cy="37.31" rx="6.67" ry="3.63" transform="translate(1.77 78.9) rotate(-45)"/><ellipse cx="100.49" cy="37.31" rx="6.67" ry="3.63" transform="translate(3.05 81.99) rotate(-45)"/><ellipse cx="104.87" cy="37.31" rx="6.67" ry="3.63" transform="translate(4.33 85.08) rotate(-45)"/><ellipse cx="109.24" cy="37.31" rx="6.67" ry="3.63" transform="translate(5.61 88.17) rotate(-45)"/><ellipse cx="104.62" cy="41.93" rx="6.67" ry="3.63" transform="translate(1 86.26) rotate(-45)"/><ellipse cx="100.01" cy="46.54" rx="6.67" ry="3.63" transform="translate(-3.62 84.35) rotate(-45)"/><ellipse cx="95.39" cy="51.16" rx="6.67" ry="3.63" transform="translate(-8.24 82.44) rotate(-45)"/><ellipse cx="90.72" cy="55.83" rx="6.67" ry="3.63" transform="translate(-12.91 80.5) rotate(-45)"/><ellipse cx="86.02" cy="60.53" rx="6.67" ry="3.63" transform="translate(-17.61 78.56) rotate(-45)"/><ellipse cx="77.15" cy="65.23" rx="6.67" ry="3.63" transform="translate(-23.53 73.66) rotate(-45)"/><ellipse cx="81.51" cy="65.23" rx="6.67" ry="3.63" transform="translate(-22.25 76.74) rotate(-45)"/><ellipse cx="85.87" cy="65.23" rx="6.67" ry="3.63" transform="translate(-20.97 79.82) rotate(-45)"/><ellipse cx="90.23" cy="65.23" rx="6.67" ry="3.63" transform="translate(-19.7 82.91) rotate(-45)"/><ellipse cx="94.58" cy="65.23" rx="6.67" ry="3.63" transform="translate(-18.42 85.99) rotate(-45)"/><ellipse cx="98.94" cy="65.23" rx="6.67" ry="3.63" transform="translate(-17.15 89.07) rotate(-45)"/><ellipse cx="103.3" cy="65.23" rx="6.67" ry="3.63" transform="translate(-15.87 92.15) rotate(-45)"/><ellipse cx="107.66" cy="65.23" rx="6.67" ry="3.63" transform="translate(-14.59 95.23) rotate(-45)"/><ellipse cx="112.02" cy="65.23" rx="6.67" ry="3.63" transform="translate(-13.32 98.31) rotate(-45)"/><ellipse cx="116.61" cy="65.23" rx="6.67" ry="3.63" transform="translate(-11.97 101.56) rotate(-45)"/><rect x="10.63" y="47.81" width="5.79" height="11.34"/><rect x="10.63" y="59.16" width="5.79" height="11.34"/><rect x="4.86" y="53.59" width="5.79" height="11.34"/><rect x="45.93" y="59.08" width="5.79" height="11.34"/><rect x="34.38" y="70.42" width="5.79" height="5.77"/><rect x="16.44" y="70.42" width="12.17" height="5.77"/><rect x="28.61" y="47.88" width="11.56" height="5.77"/><rect x="16.44" y="47.81" width="5.79" height="5.77"/><rect x="28.6" y="42.08" width="5.79" height="5.77"/><rect x="40.16" y="64.85" width="5.79" height="11.34"/><rect x="40.16" y="53.53" width="5.79" height="11.34"/><rect x="16.44" y="82.93" width="5.79" height="11.34" transform="translate(-56.98 39.62) rotate(-45)"/><rect x="8.31" y="82.93" width="5.79" height="11.34" transform="translate(-59.36 33.87) rotate(-45)"/><rect x="2.27" y="87.77" width="5.79" height="5.66" transform="translate(-62.55 30.19) rotate(-45)"/><rect x="24.55" y="82.93" width="5.79" height="11.34" transform="translate(-54.61 45.35) rotate(-45)"/><rect x="32.65" y="82.93" width="5.79" height="11.34" transform="translate(-52.24 51.08) rotate(-45)"/><rect x="40.76" y="82.93" width="5.79" height="11.34" transform="translate(-49.86 56.81) rotate(-45)"/><rect x="48.86" y="82.93" width="5.79" height="11.34" transform="translate(-47.49 62.55) rotate(-45)"/><rect x="56.97" y="82.93" width="5.79" height="11.34" transform="translate(-45.11 68.28) rotate(-45)"/><rect x="64.73" y="82.93" width="5.79" height="11.34" transform="translate(-42.84 73.76) rotate(-45)"/><rect x="60.7" y="86.95" width="5.79" height="11.34" transform="translate(-46.87 72.1) rotate(-45)"/><rect x="56.67" y="90.98" width="5.79" height="11.34" transform="translate(-50.9 70.43) rotate(-45)"/><rect x="52.64" y="95.01" width="5.79" height="11.34" transform="translate(-54.93 68.76) rotate(-45)"/><rect x="48.61" y="99.04" width="5.79" height="11.34" transform="translate(-58.95 67.09) rotate(-45)"/><rect x="44.59" y="103.07" width="5.79" height="11.34" transform="translate(-62.98 65.42) rotate(-45)"/><rect x="40.56" y="107.1" width="5.79" height="11.34" transform="translate(-67.01 63.75) rotate(-45)"/><rect x="36.53" y="111.12" width="5.79" height="11.34" transform="translate(-71.04 62.08) rotate(-45)"/><rect x="32.52" y="115.13" width="5.79" height="11.34" transform="translate(-75.04 60.43) rotate(-45)"/></svg>